# Blender v2.90.1 OBJ File: 'drzewo1.blend'
# www.blender.org
mtllib choinka_2.mtl
o choinka_2_Cylinder.004
v 0.000061 8.194012 -0.000119
v 0.000000 17.700634 -0.000000
v -0.002499 9.321502 -4.647142
v 0.033455 11.767748 -3.345916
v 0.010180 13.578667 -2.572625
v -0.003758 15.602310 -1.339492
v 0.836170 15.549818 -1.151848
v 1.372995 13.737299 -1.907264
v 2.091592 11.761750 -2.876784
v 2.515460 9.882648 -3.479188
v 1.240840 15.538367 -0.400165
v 2.407819 13.677562 -0.825190
v 3.181620 11.796594 -1.037674
v 4.453880 9.225125 -1.476076
v 1.349761 15.487487 0.448628
v 2.224470 13.735377 0.715224
v 3.462584 11.430766 1.124795
v 4.091607 9.895224 1.328873
v 0.762796 15.473110 1.069506
v 1.498062 13.498337 2.061820
v 1.957937 11.758862 2.694381
v 2.723205 9.376149 3.747003
v -0.003489 15.488411 1.430991
v 0.000005 13.691212 2.344857
v 0.001958 11.490976 3.640443
v 0.010240 10.218673 4.304049
v -0.772724 15.578325 1.026860
v -1.501397 13.483509 2.068081
v -1.963777 11.771706 2.702839
v -2.729245 9.380431 3.756296
v -1.363157 15.650866 0.352979
v -2.234497 13.602993 0.737077
v -3.462349 11.430766 1.124796
v -4.091102 9.895224 1.328873
v -1.256242 15.712976 -0.528980
v -2.418061 13.549400 -0.804630
v -3.167768 11.758170 -1.029636
v -4.405316 9.376149 -1.432173
v -0.845148 15.663195 -1.240620
v -1.349926 13.974198 -1.975868
v -2.169112 11.193098 -2.975350
v -2.510655 9.560410 -3.537224
v 1.513854 9.823830 -2.085834
v 2.448538 9.803742 -0.795878
v 2.454971 9.809443 0.797300
v 1.506994 9.794609 2.073461
v 0.001456 9.850872 2.580107
v -1.509899 9.799367 2.078082
v -2.454645 9.809443 0.797300
v -2.437785 9.794609 -0.792590
v -1.517118 9.759595 -2.097512
v 0.000947 9.797400 -2.567417
v 0.014919 11.847195 -2.111063
v 1.231149 11.934311 -1.693161
v 2.004947 11.888356 -0.659335
v 2.007026 11.855479 0.651820
v 1.236686 11.841450 1.701858
v 0.000061 11.854510 2.110250
v -1.239428 11.851225 1.705891
v -2.007486 11.844094 0.653468
v -2.000753 11.841577 -0.650333
v -1.244761 11.848909 -1.720036
v 0.008532 14.000898 -1.414832
v 0.813945 13.947172 -1.132121
v 1.313330 13.992194 -0.446149
v 1.318847 13.936500 0.425159
v 0.816819 13.898896 1.128264
v -0.000534 13.908001 1.392897
v -0.819321 13.891885 1.129464
v -1.327584 13.877317 0.426698
v -1.319502 14.009932 -0.478687
v -0.802377 14.115153 -1.194418
v -0.006283 16.002771 -0.610033
v 0.325324 15.965769 -0.478578
v 0.529540 15.933717 -0.182902
v 0.528964 15.911058 0.169958
v 0.324410 15.907368 0.447598
v -0.006133 15.931538 0.540321
v -0.337261 15.977509 0.407504
v -0.542876 16.024544 0.099377
v -0.543673 16.047794 -0.260065
v -0.338532 16.036203 -0.528893
v -0.009351 7.884209 -5.258090
v 3.345001 7.427056 -4.604221
v 5.090004 7.543647 -1.751629
v 5.412080 7.427056 1.757596
v 3.070592 8.076887 4.224998
v 0.000395 7.427056 5.689415
v -3.096511 7.703557 4.230024
v -5.411289 7.427056 1.757596
v -4.967288 8.076887 -1.614866
v -3.344208 7.427056 -4.604222
v 0.000000 -0.060570 -1.507046
v 0.067346 2.978327 -0.943554
v 1.433286 -0.060570 -0.465703
v 0.965166 2.978327 -0.291249
v 0.885819 -0.060570 1.219226
v 0.622229 2.978327 0.764202
v -0.885819 -0.060570 1.219226
v -0.487538 2.978327 0.764202
v -1.433286 -0.060570 -0.465703
v -0.830475 2.978327 -0.291249
v -0.133129 6.389503 -0.506155
v 0.339138 6.303122 -0.155588
v 0.156924 6.335401 0.409347
v -0.427958 6.441733 0.407929
v -0.607221 6.475171 -0.157882
v -0.000000 8.751338 -0.522329
v 0.496764 8.751338 -0.161408
v 0.307017 8.751338 0.422573
v -0.307017 8.751338 0.422573
v -0.496764 8.751338 -0.161409
vt 0.145647 0.903647
vt 0.145647 0.903647
vt 0.145647 0.903647
vt 0.145647 0.903647
vt 0.145647 0.903647
vt 0.145647 0.903647
vt 0.145647 0.903647
vt 0.145647 0.903647
vt 0.145647 0.903647
vt 0.145647 0.903647
vt 0.145647 0.903647
vt 0.145647 0.903647
vt 0.145647 0.903647
vt 0.145647 0.903647
vt 0.145647 0.903647
vt 0.145647 0.903647
vt 0.145647 0.903647
vt 0.145647 0.903647
vt 0.145647 0.903647
vt 0.145647 0.903647
vt 0.145647 0.903647
vt 0.145647 0.903647
vt 0.145647 0.903647
vt 0.145647 0.903647
vt 0.145647 0.903647
vt 0.145647 0.903647
vt 0.145647 0.903647
vt 0.145647 0.903647
vt 0.145647 0.903647
vt 0.145647 0.903647
vt 0.145647 0.903647
vt 0.145647 0.903647
vt 0.145647 0.903647
vt 0.145647 0.903647
vt 0.145647 0.903647
vt 0.145647 0.903647
vt 0.145647 0.903647
vt 0.145647 0.903647
vt 0.145647 0.903647
vt 0.145647 0.903647
vt 0.145647 0.903647
vt 0.145647 0.903647
vt 0.145647 0.903647
vt 0.145647 0.903647
vt 0.145647 0.903647
vt 0.145647 0.903647
vt 0.145647 0.903647
vt 0.145647 0.903647
vt 0.145647 0.903647
vt 0.145647 0.903647
vt 0.145647 0.903647
vt 0.145647 0.903647
vt 0.145647 0.903647
vt 0.145647 0.903647
vt 0.145647 0.903647
vt 0.145647 0.903647
vt 0.145647 0.903647
vt 0.145647 0.903647
vt 0.145647 0.903647
vt 0.145647 0.903647
vt 0.145647 0.903647
vt 0.145647 0.903647
vt 0.145647 0.903647
vt 0.145647 0.903647
vt 0.145647 0.903647
vt 0.145647 0.903647
vt 0.145647 0.903647
vt 0.145647 0.903647
vt 0.145647 0.903647
vt 0.145647 0.903647
vt 0.145647 0.903647
vt 0.145647 0.903647
vt 0.145647 0.903647
vt 0.145647 0.903647
vt 0.145647 0.903647
vt 0.145647 0.903647
vt 0.145647 0.903647
vt 0.145647 0.903647
vt 0.145647 0.903647
vt 0.145647 0.903647
vt 0.145647 0.903647
vt 0.145647 0.903647
vt 0.145647 0.903647
vt 0.145647 0.903647
vt 0.145647 0.903647
vt 0.145647 0.903647
vt 0.145647 0.903647
vt 0.145647 0.903647
vt 0.145647 0.903647
vt 0.145647 0.903647
vt 0.145647 0.903647
vt 0.145647 0.903647
vt 0.855120 0.724976
vt 0.855120 0.724976
vt 0.855120 0.724976
vt 0.855120 0.724976
vt 0.855120 0.724976
vt 0.855120 0.724976
vt 0.855120 0.724976
vt 0.855120 0.724976
vt 0.855120 0.724976
vt 0.855120 0.724976
vt 0.855120 0.724976
vt 0.855120 0.724976
vt 0.855120 0.724976
vt 0.855120 0.724976
vt 0.855120 0.724976
vt 0.855120 0.724976
vt 0.855120 0.724976
vt 0.855120 0.724976
vt 0.855120 0.724976
vt 0.855120 0.724976
vn 0.2167 0.5250 -0.8230
vn 0.7603 0.5106 -0.4015
vn 0.8581 0.5072 -0.0797
vn 0.6228 0.5016 0.6004
vn 0.3770 0.5026 0.7780
vn -0.3531 0.5085 0.7853
vn -0.6174 0.5132 0.5962
vn -0.8360 0.5451 -0.0630
vn -0.6997 0.5602 -0.4434
vn -0.0600 0.5372 -0.8413
vn 0.0224 -0.9830 0.1822
vn 0.2041 -0.9566 0.2082
vn -0.1074 -0.9463 0.3050
vn 0.0016 -0.8814 0.4724
vn 0.1493 -0.9855 0.0801
vn 0.1374 -0.9566 0.2569
vn 0.3338 -0.9425 0.0157
vn 0.3209 -0.9111 0.2587
vn 0.0879 -0.9894 0.1154
vn 0.1830 -0.9802 -0.0761
vn 0.3439 -0.9374 -0.0549
vn 0.4196 -0.9073 -0.0265
vn 0.0048 -0.9897 -0.1431
vn 0.1955 -0.9799 -0.0388
vn 0.2491 -0.9474 -0.2009
vn 0.3009 -0.8864 -0.3519
vn 0.1919 -0.9800 0.0536
vn -0.0116 -0.9843 -0.1759
vn 0.1526 -0.9534 -0.2603
vn 0.1150 -0.8812 -0.4586
vn -0.1946 -0.9793 0.0556
vn 0.0042 -0.9845 -0.1753
vn -0.1448 -0.9546 -0.2602
vn -0.2146 -0.8707 -0.4425
vn -0.0033 -0.9894 -0.1450
vn -0.1940 -0.9797 -0.0510
vn -0.1802 -0.9549 -0.2359
vn -0.3572 -0.8730 -0.3322
vn -0.1271 -0.9819 0.1406
vn -0.1883 -0.9773 -0.0968
vn -0.2504 -0.9680 -0.0176
vn -0.4710 -0.8821 -0.0115
vn -0.1927 -0.9807 -0.0336
vn -0.0882 -0.9947 0.0533
vn -0.1946 -0.9676 0.1609
vn -0.4282 -0.8783 0.2125
vn 0.0853 -0.9861 0.1429
vn -0.0031 -0.9947 0.1025
vn -0.0801 -0.9540 0.2888
vn -0.1874 -0.8772 0.4420
vn 0.2051 0.7881 -0.5804
vn 0.5256 0.7718 -0.3579
vn 0.6381 0.7695 -0.0244
vn 0.5108 0.8007 0.3130
vn 0.1481 0.7980 0.5842
vn -0.2167 0.7719 0.5977
vn -0.5029 0.7755 0.3817
vn -0.5972 0.8007 0.0470
vn -0.4469 0.8037 -0.3929
vn -0.2132 0.7922 -0.5718
vn 0.1722 0.7011 -0.6920
vn 0.6093 0.6941 -0.3834
vn 0.7126 0.7001 -0.0460
vn 0.5435 0.7120 0.4446
vn 0.3069 0.7359 0.6036
vn -0.3008 0.7356 0.6069
vn -0.5470 0.7129 0.4388
vn -0.7002 0.7129 -0.0385
vn -0.5777 0.6870 -0.4408
vn -0.2311 0.6857 -0.6902
vn 0.2034 0.6609 -0.7224
vn 0.6215 0.6661 -0.4123
vn 0.7603 0.6493 0.0184
vn 0.6082 0.6513 0.4537
vn 0.2491 0.6576 0.7111
vn -0.2438 0.6599 0.7107
vn -0.6133 0.6578 0.4371
vn -0.7623 0.6469 0.0219
vn -0.6394 0.6089 -0.4694
vn -0.2412 0.6076 -0.7567
vn 0.3026 0.6056 -0.7359
vn 0.6017 0.6232 -0.4996
vn 0.7775 0.6256 0.0639
vn 0.6402 0.6165 0.4583
vn 0.2282 0.6137 0.7559
vn -0.2237 0.6107 0.7596
vn -0.6691 0.5962 0.4437
vn -0.8071 0.5863 0.0689
vn -0.6727 0.6091 -0.4200
vn -0.1517 0.6192 -0.7704
vn -0.1460 -0.9876 0.0584
vn -0.0931 -0.9909 0.0974
vn -0.1337 -0.9908 -0.0206
vn -0.1703 -0.9806 0.0966
vn 0.1445 -0.9806 -0.1322
vn -0.0255 -0.9907 -0.1335
vn 0.1353 -0.9907 -0.0158
vn 0.0811 -0.9806 -0.1783
vn -0.0392 -0.9806 0.1919
vn 0.1467 -0.9875 0.0579
vn 0.5823 0.1357 -0.8015
vn 0.9433 0.1277 0.3065
vn -0.0000 0.1481 0.9890
vn -0.9504 0.0485 0.3071
vn -0.9375 0.1685 0.3046
vn -0.5801 0.1609 -0.7985
vn 0.9395 0.1633 0.3012
vn -0.5851 0.0687 -0.8081
vn 0.5906 0.1401 -0.7947
vn 0.0057 0.1040 0.9946
vn -0.9507 0.0472 0.3065
vn 0.9491 -0.0605 0.3090
vn -0.5881 0.0275 -0.8083
vn -0.0017 -0.0058 1.0000
vn 0.5891 -0.0393 -0.8071
usemtl None
s off
f 6/1/1 2/2/1 7/3/1
f 7/3/2 2/2/2 11/4/2
f 11/4/3 2/2/3 15/5/3
f 15/5/4 2/2/4 19/6/4
f 19/6/5 2/2/5 23/7/5
f 23/7/6 2/2/6 27/8/6
f 27/8/7 2/2/7 31/9/7
f 31/9/8 2/2/8 35/10/8
f 35/10/9 2/2/9 39/11/9
f 39/11/10 2/2/10 6/1/10
f 51/12/11 42/13/11 3/14/11 52/15/11
f 62/16/12 41/17/12 4/18/12 53/19/12
f 72/20/13 40/21/13 5/22/13 63/23/13
f 82/24/14 39/11/14 6/1/14 73/25/14
f 50/26/15 38/27/15 42/13/15 51/12/15
f 61/28/16 37/29/16 41/17/16 62/16/16
f 71/30/17 36/31/17 40/21/17 72/20/17
f 81/32/18 35/10/18 39/11/18 82/24/18
f 49/33/19 34/34/19 38/27/19 50/26/19
f 60/35/20 33/36/20 37/29/20 61/28/20
f 70/37/21 32/38/21 36/31/21 71/30/21
f 80/39/22 31/9/22 35/10/22 81/32/22
f 48/40/23 30/41/23 34/34/23 49/33/23
f 59/42/24 29/43/24 33/36/24 60/35/24
f 69/44/25 28/45/25 32/38/25 70/37/25
f 79/46/26 27/8/26 31/9/26 80/39/26
f 47/47/27 26/48/27 30/41/27 48/40/27
f 58/49/28 25/50/28 29/43/28 59/42/28
f 68/51/29 24/52/29 28/45/29 69/44/29
f 78/53/30 23/7/30 27/8/30 79/46/30
f 46/54/31 22/55/31 26/48/31 47/47/31
f 57/56/32 21/57/32 25/50/32 58/49/32
f 67/58/33 20/59/33 24/52/33 68/51/33
f 77/60/34 19/6/34 23/7/34 78/53/34
f 45/61/35 18/62/35 22/55/35 46/54/35
f 56/63/36 17/64/36 21/57/36 57/56/36
f 66/65/37 16/66/37 20/59/37 67/58/37
f 76/67/38 15/5/38 19/6/38 77/60/38
f 44/68/39 14/69/39 18/62/39 45/61/39
f 55/70/40 13/71/40 17/64/40 56/63/40
f 65/72/41 12/73/41 16/66/41 66/65/41
f 75/74/42 11/4/42 15/5/42 76/67/42
f 43/75/43 10/76/43 14/69/43 44/68/43
f 54/77/44 9/78/44 13/71/44 55/70/44
f 64/79/45 8/80/45 12/73/45 65/72/45
f 74/81/46 7/3/46 11/4/46 75/74/46
f 52/15/47 3/14/47 10/76/47 43/75/47
f 53/19/48 4/18/48 9/78/48 54/77/48
f 63/23/49 5/22/49 8/80/49 64/79/49
f 73/25/50 6/1/50 7/3/50 74/81/50
f 83/82/51 52/15/51 43/75/51 84/83/51
f 84/83/52 43/75/52 44/68/52 85/84/52
f 85/84/53 44/68/53 45/61/53 86/85/53
f 86/85/54 45/61/54 46/54/54 87/86/54
f 87/86/55 46/54/55 47/47/55 88/87/55
f 88/87/56 47/47/56 48/40/56 89/88/56
f 89/88/57 48/40/57 49/33/57 90/89/57
f 90/89/58 49/33/58 50/26/58 91/90/58
f 91/90/59 50/26/59 51/12/59 92/91/59
f 92/91/60 51/12/60 52/15/60 83/82/60
f 3/14/61 53/19/61 54/77/61 10/76/61
f 10/76/62 54/77/62 55/70/62 14/69/62
f 14/69/63 55/70/63 56/63/63 18/62/63
f 18/62/64 56/63/64 57/56/64 22/55/64
f 22/55/65 57/56/65 58/49/65 26/48/65
f 26/48/66 58/49/66 59/42/66 30/41/66
f 30/41/67 59/42/67 60/35/67 34/34/67
f 34/34/68 60/35/68 61/28/68 38/27/68
f 38/27/69 61/28/69 62/16/69 42/13/69
f 42/13/70 62/16/70 53/19/70 3/14/70
f 4/18/71 63/23/71 64/79/71 9/78/71
f 9/78/72 64/79/72 65/72/72 13/71/72
f 13/71/73 65/72/73 66/65/73 17/64/73
f 17/64/74 66/65/74 67/58/74 21/57/74
f 21/57/75 67/58/75 68/51/75 25/50/75
f 25/50/76 68/51/76 69/44/76 29/43/76
f 29/43/77 69/44/77 70/37/77 33/36/77
f 33/36/78 70/37/78 71/30/78 37/29/78
f 37/29/79 71/30/79 72/20/79 41/17/79
f 41/17/80 72/20/80 63/23/80 4/18/80
f 5/22/81 73/25/81 74/81/81 8/80/81
f 8/80/82 74/81/82 75/74/82 12/73/82
f 12/73/83 75/74/83 76/67/83 16/66/83
f 16/66/84 76/67/84 77/60/84 20/59/84
f 20/59/85 77/60/85 78/53/85 24/52/85
f 24/52/86 78/53/86 79/46/86 28/45/86
f 28/45/87 79/46/87 80/39/87 32/38/87
f 32/38/88 80/39/88 81/32/88 36/31/88
f 36/31/89 81/32/89 82/24/89 40/21/89
f 40/21/90 82/24/90 73/25/90 5/22/90
f 1/92/91 83/82/91 84/83/91
f 1/92/92 84/83/92 85/84/92
f 1/92/93 85/84/93 86/85/93
f 1/92/94 86/85/94 87/86/94
f 1/92/95 87/86/95 88/87/95
f 1/92/96 88/87/96 89/88/96
f 1/92/97 89/88/97 90/89/97
f 1/92/98 90/89/98 91/90/98
f 1/92/99 91/90/99 92/91/99
f 1/92/100 92/91/100 83/82/100
f 93/93/101 94/94/101 96/95/101 95/96/101
f 95/96/102 96/95/102 98/97/102 97/98/102
f 97/98/103 98/97/103 100/99/103 99/100/103
f 102/101/104 100/99/104 106/102/104 107/103/104
f 99/100/105 100/99/105 102/101/105 101/104/105
f 101/104/106 102/101/106 94/94/106 93/93/106
f 98/97/107 96/95/107 104/105/107 105/106/107
f 94/94/108 102/101/108 107/103/108 103/107/108
f 96/95/109 94/94/109 103/107/109 104/105/109
f 100/99/110 98/97/110 105/106/110 106/102/110
f 107/103/111 106/102/111 111/108/111 112/109/111
f 105/106/112 104/105/112 109/110/112 110/111/112
f 103/107/113 107/103/113 112/109/113 108/112/113
f 106/102/114 105/106/114 110/111/114 111/108/114
f 104/105/115 103/107/115 108/112/115 109/110/115
