# Blender v2.90.1 OBJ File: 'drzewo1.blend'
# www.blender.org
mtllib choinka_1.mtl.mtl
o choinka_1_Cylinder.002
v -0.000000 2.752003 -0.000000
v 0.000000 14.128191 -0.000000
v -0.000000 4.786042 -3.292899
v -0.000000 6.275949 -2.993502
v -0.000000 9.016302 -1.773130
v -0.000000 11.341078 -1.141875
v 0.560525 11.120895 -0.771497
v 1.247962 8.802248 -1.717672
v 1.469455 6.899179 -2.022531
v 2.317604 3.745664 -3.189908
v 1.085988 11.341077 -0.352859
v 1.686347 9.016302 -0.547927
v 2.846990 6.275949 -0.925043
v 3.131733 4.786042 -1.017562
v 0.906949 11.120895 0.294686
v 2.019245 8.802248 0.656092
v 2.377628 6.899179 0.772538
v 3.749961 3.745664 1.218437
v 0.671177 11.341077 0.923796
v 1.042219 9.016302 1.434492
v 1.759536 6.275949 2.421795
v 1.935517 4.786042 2.664011
v -0.000000 11.120895 0.953623
v -0.000000 8.802248 2.123159
v -0.000000 6.899179 2.499986
v -0.000000 3.745664 3.942943
v -0.671178 11.341077 0.923796
v -1.042220 9.016302 1.434492
v -1.759537 6.275949 2.421795
v -1.935518 4.786042 2.664011
v -0.906949 11.120895 0.294686
v -2.019245 8.802248 0.656093
v -2.377627 6.899179 0.772538
v -3.749961 3.745664 1.218437
v -1.085988 11.341077 -0.352859
v -1.686346 9.016302 -0.547927
v -2.846990 6.275949 -0.925044
v -3.131733 4.786042 -1.017562
v -0.560525 11.120895 -0.771497
v -1.247961 8.802248 -1.717672
v -1.469454 6.899179 -2.022532
v -2.317603 3.745664 -3.189909
v 1.423571 5.138726 -1.959378
v 2.303386 5.138726 -0.748416
v 2.303386 5.138726 0.748416
v 1.423571 5.138727 1.959378
v -0.000000 5.138726 2.421924
v -1.423571 5.138727 1.959378
v -2.303386 5.138726 0.748416
v -2.303386 5.138726 -0.748416
v -1.423570 5.138727 -1.959378
v -0.000000 5.138727 -2.421924
v -0.000000 7.411038 -1.824717
v 1.072542 7.411038 -1.476227
v 1.735409 7.411038 -0.563869
v 1.735409 7.411038 0.563869
v 1.072542 7.411038 1.476227
v -0.000000 7.411038 1.824717
v -1.072542 7.411038 1.476227
v -1.735409 7.411038 0.563869
v -1.735409 7.411038 -0.563869
v -1.072541 7.411038 -1.476228
v -0.000000 9.709147 -1.218969
v 0.716492 9.709147 -0.986167
v 1.159308 9.709147 -0.376682
v 1.159308 9.709147 0.376682
v 0.716492 9.709147 0.986167
v -0.000000 9.709147 1.218969
v -0.716492 9.709147 0.986167
v -1.159308 9.709147 0.376682
v -1.159308 9.709147 -0.376682
v -0.716492 9.709147 -0.986167
v 0.000000 11.981459 -0.500533
v 0.294206 11.981458 -0.404940
v 0.476036 11.981458 -0.154673
v 0.476036 11.981458 0.154673
v 0.294206 11.981458 0.404940
v -0.000000 11.981458 0.500534
v -0.294206 11.981458 0.404940
v -0.476035 11.981458 0.154673
v -0.476035 11.981458 -0.154673
v -0.294206 11.981458 -0.404940
v -0.000000 1.522030 -4.892384
v 2.401580 2.366252 -3.305492
v 4.652933 1.522030 -1.511830
v 3.885838 2.366252 1.262586
v 2.875670 1.522030 3.958022
v -0.000000 2.366252 4.085813
v -2.875672 1.522030 3.958022
v -3.885838 2.366252 1.262586
v -4.652933 1.522030 -1.511830
v -2.401579 2.366252 -3.305493
v -0.000000 3.129020 -0.476674
v 0.453343 3.129020 -0.147300
v 0.280182 3.129020 0.385637
v -0.280182 3.129020 0.385637
v -0.453343 3.129020 -0.147300
v -0.000000 -0.030350 -1.123791
v 1.068788 -0.030350 -0.347271
v 0.660548 -0.030350 0.909167
v -0.660548 -0.030350 0.909167
v -1.068789 -0.030350 -0.347271
v 0.632985 1.298982 -0.205670
v -0.632986 1.298982 -0.205670
v -0.391207 1.298982 0.538450
v -0.000000 1.298982 -0.665561
v 0.391207 1.298982 0.538450
vt 0.902115 0.931006
vt 0.902115 0.931006
vt 0.902115 0.931006
vt 0.902115 0.931006
vt 0.902115 0.931006
vt 0.902115 0.931006
vt 0.902115 0.931006
vt 0.902115 0.931006
vt 0.902115 0.931006
vt 0.902115 0.931006
vt 0.902115 0.931006
vt 0.902115 0.931006
vt 0.902115 0.931006
vt 0.902115 0.931006
vt 0.902115 0.931006
vt 0.902115 0.931006
vt 0.902115 0.931006
vt 0.902115 0.931006
vt 0.902115 0.931006
vt 0.902115 0.931006
vt 0.902115 0.931006
vt 0.902115 0.931006
vt 0.902115 0.931006
vt 0.902115 0.931006
vt 0.902115 0.931006
vt 0.902115 0.931006
vt 0.902115 0.931006
vt 0.902115 0.931006
vt 0.902115 0.931006
vt 0.902115 0.931006
vt 0.902115 0.931006
vt 0.902115 0.931006
vt 0.902115 0.931006
vt 0.902115 0.931006
vt 0.902115 0.931006
vt 0.902115 0.931006
vt 0.902115 0.931006
vt 0.902115 0.931006
vt 0.902115 0.931006
vt 0.902115 0.931006
vt 0.902115 0.931006
vt 0.902115 0.931006
vt 0.902115 0.931006
vt 0.902115 0.931006
vt 0.902115 0.931006
vt 0.902115 0.931006
vt 0.902115 0.931006
vt 0.902115 0.931006
vt 0.902115 0.931006
vt 0.902115 0.931006
vt 0.902115 0.931006
vt 0.902115 0.931006
vt 0.902115 0.931006
vt 0.902115 0.931006
vt 0.902115 0.931006
vt 0.902115 0.931006
vt 0.902115 0.931006
vt 0.902115 0.931006
vt 0.902115 0.931006
vt 0.902115 0.931006
vt 0.902115 0.931006
vt 0.902115 0.931006
vt 0.902115 0.931006
vt 0.902115 0.931006
vt 0.902115 0.931006
vt 0.902115 0.931006
vt 0.902115 0.931006
vt 0.902115 0.931006
vt 0.902115 0.931006
vt 0.902115 0.931006
vt 0.902115 0.931006
vt 0.902115 0.931006
vt 0.902115 0.931006
vt 0.902115 0.931006
vt 0.902115 0.931006
vt 0.902115 0.931006
vt 0.902115 0.931006
vt 0.902115 0.931006
vt 0.902115 0.931006
vt 0.902115 0.931006
vt 0.902115 0.931006
vt 0.902115 0.931006
vt 0.902115 0.931006
vt 0.902115 0.931006
vt 0.902115 0.931006
vt 0.902115 0.931006
vt 0.902115 0.931006
vt 0.902115 0.931006
vt 0.902115 0.931006
vt 0.902115 0.931006
vt 0.902115 0.931006
vt 0.902115 0.931006
vt 0.538369 0.856814
vt 0.538369 0.856814
vt 0.538369 0.856814
vt 0.538369 0.856814
vt 0.538369 0.856814
vt 0.538369 0.856814
vt 0.538369 0.856814
vt 0.538369 0.856814
vt 0.538369 0.856814
vt 0.538369 0.856814
vt 0.538369 0.856814
vt 0.538369 0.856814
vt 0.538369 0.856814
vt 0.538369 0.856814
vt 0.538369 0.856814
vn 0.6053 0.3018 -0.7366
vn 0.5135 0.3018 -0.8033
vn 0.8876 0.3018 0.3480
vn 0.9226 0.3018 0.2402
vn -0.0567 0.3018 0.9517
vn 0.0567 0.3018 0.9517
vn -0.9226 0.3018 0.2402
vn -0.8876 0.3018 0.3480
vn -0.5135 0.3018 -0.8033
vn -0.6053 0.3018 -0.7366
vn 0.3006 -0.7926 0.5305
vn 0.1651 -0.7302 0.6630
vn 0.1792 -0.6518 0.7369
vn 0.5057 -0.5410 0.6720
vn 0.4117 -0.7926 0.4498
vn 0.5795 -0.7302 0.3619
vn 0.6455 -0.6518 0.3981
vn 0.4828 -0.5410 0.6886
vn 0.5974 -0.7926 -0.1220
vn 0.6816 -0.7302 0.0478
vn 0.7562 -0.6518 0.0573
vn 0.7954 -0.5410 -0.2733
vn 0.5550 -0.7926 -0.2525
vn 0.5233 -0.7302 -0.4393
vn 0.5781 -0.6518 -0.4909
vn 0.8041 -0.5410 -0.2464
vn 0.0686 -0.7926 -0.6059
vn 0.2561 -0.7302 -0.6334
vn 0.2882 -0.6518 -0.7015
vn -0.0141 -0.5410 -0.8409
vn -0.0686 -0.7926 -0.6059
vn -0.2561 -0.7302 -0.6334
vn -0.2882 -0.6518 -0.7015
vn 0.0141 -0.5410 -0.8409
vn -0.5550 -0.7926 -0.2525
vn -0.5233 -0.7302 -0.4393
vn -0.5781 -0.6518 -0.4909
vn -0.8041 -0.5410 -0.2464
vn -0.5974 -0.7926 -0.1220
vn -0.6816 -0.7302 0.0478
vn -0.7562 -0.6518 0.0573
vn -0.7954 -0.5410 -0.2733
vn -0.4117 -0.7926 0.4498
vn -0.5795 -0.7302 0.3619
vn -0.6455 -0.6518 0.3981
vn -0.4828 -0.5410 0.6886
vn -0.3006 -0.7926 0.5305
vn -0.1651 -0.7302 0.6630
vn -0.1792 -0.6518 0.7369
vn -0.5057 -0.5410 0.6720
vn 0.3104 0.5221 -0.7944
vn 0.6596 0.5221 -0.5407
vn 0.8515 0.5221 0.0497
vn 0.7181 0.5221 0.4602
vn 0.2158 0.5221 0.8252
vn -0.2158 0.5221 0.8252
vn -0.7181 0.5221 0.4602
vn -0.8515 0.5221 0.0497
vn -0.6596 0.5221 -0.5407
vn -0.3104 0.5221 -0.7944
vn 0.2581 0.4763 -0.8406
vn 0.7197 0.4763 -0.5052
vn 0.8792 0.4763 -0.0143
vn 0.7029 0.4763 0.5283
vn 0.2853 0.4763 0.8317
vn -0.2853 0.4763 0.8317
vn -0.7029 0.4763 0.5283
vn -0.8792 0.4763 -0.0143
vn -0.7197 0.4763 -0.5052
vn -0.2581 0.4763 -0.8406
vn 0.3431 0.4197 -0.8403
vn 0.6932 0.4197 -0.5860
vn 0.9052 0.4197 0.0666
vn 0.7715 0.4197 0.4782
vn 0.2164 0.4197 0.8815
vn -0.2164 0.4197 0.8815
vn -0.7715 0.4197 0.4782
vn -0.9052 0.4197 0.0666
vn -0.6932 0.4197 -0.5860
vn -0.3431 0.4197 -0.8403
vn 0.1444 0.4027 -0.9039
vn 0.8150 0.4027 -0.4167
vn 0.9042 0.4027 -0.1419
vn 0.6481 0.4027 0.6463
vn 0.4144 0.4027 0.8161
vn -0.4144 0.4027 0.8161
vn -0.6481 0.4027 0.6463
vn -0.9042 0.4027 -0.1419
vn -0.8150 0.4027 -0.4167
vn -0.1444 0.4027 -0.9039
vn 0.1770 -0.9545 0.2400
vn -0.2829 -0.9545 -0.0942
vn -0.1735 -0.9545 0.2425
vn 0.0021 -0.9545 -0.2982
vn -0.2842 -0.9545 -0.0901
vn 0.2842 -0.9545 -0.0901
vn -0.0021 -0.9545 -0.2982
vn 0.1735 -0.9545 0.2425
vn 0.2829 -0.9545 -0.0942
vn -0.1770 -0.9545 0.2400
vn -0.5857 0.0832 -0.8062
vn 0.0000 0.0832 0.9965
vn 0.9478 0.0832 0.3079
vn -0.9161 0.2686 0.2977
vn 0.5662 0.2686 -0.7793
vn 0.9161 0.2686 0.2977
vn -0.5662 0.2686 -0.7793
vn -0.9478 0.0832 0.3079
vn 0.0000 0.2686 0.9632
vn 0.5857 0.0832 -0.8062
usemtl None
s off
f 6/1/1 2/2/1 7/3/1
f 7/3/2 2/2/2 11/4/2
f 11/4/3 2/2/3 15/5/3
f 15/5/4 2/2/4 19/6/4
f 19/6/5 2/2/5 23/7/5
f 23/7/6 2/2/6 27/8/6
f 27/8/7 2/2/7 31/9/7
f 31/9/8 2/2/8 35/10/8
f 35/10/9 2/2/9 39/11/9
f 39/11/10 2/2/10 6/1/10
f 51/12/11 42/13/11 3/14/11 52/15/11
f 62/16/12 41/17/12 4/18/12 53/19/12
f 72/20/13 40/21/13 5/22/13 63/23/13
f 82/24/14 39/11/14 6/1/14 73/25/14
f 50/26/15 38/27/15 42/13/15 51/12/15
f 61/28/16 37/29/16 41/17/16 62/16/16
f 71/30/17 36/31/17 40/21/17 72/20/17
f 81/32/18 35/10/18 39/11/18 82/24/18
f 49/33/19 34/34/19 38/27/19 50/26/19
f 60/35/20 33/36/20 37/29/20 61/28/20
f 70/37/21 32/38/21 36/31/21 71/30/21
f 80/39/22 31/9/22 35/10/22 81/32/22
f 48/40/23 30/41/23 34/34/23 49/33/23
f 59/42/24 29/43/24 33/36/24 60/35/24
f 69/44/25 28/45/25 32/38/25 70/37/25
f 79/46/26 27/8/26 31/9/26 80/39/26
f 47/47/27 26/48/27 30/41/27 48/40/27
f 58/49/28 25/50/28 29/43/28 59/42/28
f 68/51/29 24/52/29 28/45/29 69/44/29
f 78/53/30 23/7/30 27/8/30 79/46/30
f 46/54/31 22/55/31 26/48/31 47/47/31
f 57/56/32 21/57/32 25/50/32 58/49/32
f 67/58/33 20/59/33 24/52/33 68/51/33
f 77/60/34 19/6/34 23/7/34 78/53/34
f 45/61/35 18/62/35 22/55/35 46/54/35
f 56/63/36 17/64/36 21/57/36 57/56/36
f 66/65/37 16/66/37 20/59/37 67/58/37
f 76/67/38 15/5/38 19/6/38 77/60/38
f 44/68/39 14/69/39 18/62/39 45/61/39
f 55/70/40 13/71/40 17/64/40 56/63/40
f 65/72/41 12/73/41 16/66/41 66/65/41
f 75/74/42 11/4/42 15/5/42 76/67/42
f 43/75/43 10/76/43 14/69/43 44/68/43
f 54/77/44 9/78/44 13/71/44 55/70/44
f 64/79/45 8/80/45 12/73/45 65/72/45
f 74/81/46 7/3/46 11/4/46 75/74/46
f 52/15/47 3/14/47 10/76/47 43/75/47
f 53/19/48 4/18/48 9/78/48 54/77/48
f 63/23/49 5/22/49 8/80/49 64/79/49
f 73/25/50 6/1/50 7/3/50 74/81/50
f 83/82/51 52/15/51 43/75/51 84/83/51
f 84/83/52 43/75/52 44/68/52 85/84/52
f 85/84/53 44/68/53 45/61/53 86/85/53
f 86/85/54 45/61/54 46/54/54 87/86/54
f 87/86/55 46/54/55 47/47/55 88/87/55
f 88/87/56 47/47/56 48/40/56 89/88/56
f 89/88/57 48/40/57 49/33/57 90/89/57
f 90/89/58 49/33/58 50/26/58 91/90/58
f 91/90/59 50/26/59 51/12/59 92/91/59
f 92/91/60 51/12/60 52/15/60 83/82/60
f 3/14/61 53/19/61 54/77/61 10/76/61
f 10/76/62 54/77/62 55/70/62 14/69/62
f 14/69/63 55/70/63 56/63/63 18/62/63
f 18/62/64 56/63/64 57/56/64 22/55/64
f 22/55/65 57/56/65 58/49/65 26/48/65
f 26/48/66 58/49/66 59/42/66 30/41/66
f 30/41/67 59/42/67 60/35/67 34/34/67
f 34/34/68 60/35/68 61/28/68 38/27/68
f 38/27/69 61/28/69 62/16/69 42/13/69
f 42/13/70 62/16/70 53/19/70 3/14/70
f 4/18/71 63/23/71 64/79/71 9/78/71
f 9/78/72 64/79/72 65/72/72 13/71/72
f 13/71/73 65/72/73 66/65/73 17/64/73
f 17/64/74 66/65/74 67/58/74 21/57/74
f 21/57/75 67/58/75 68/51/75 25/50/75
f 25/50/76 68/51/76 69/44/76 29/43/76
f 29/43/77 69/44/77 70/37/77 33/36/77
f 33/36/78 70/37/78 71/30/78 37/29/78
f 37/29/79 71/30/79 72/20/79 41/17/79
f 41/17/80 72/20/80 63/23/80 4/18/80
f 5/22/81 73/25/81 74/81/81 8/80/81
f 8/80/82 74/81/82 75/74/82 12/73/82
f 12/73/83 75/74/83 76/67/83 16/66/83
f 16/66/84 76/67/84 77/60/84 20/59/84
f 20/59/85 77/60/85 78/53/85 24/52/85
f 24/52/86 78/53/86 79/46/86 28/45/86
f 28/45/87 79/46/87 80/39/87 32/38/87
f 32/38/88 80/39/88 81/32/88 36/31/88
f 36/31/89 81/32/89 82/24/89 40/21/89
f 40/21/90 82/24/90 73/25/90 5/22/90
f 1/92/91 83/82/91 84/83/91
f 1/92/92 84/83/92 85/84/92
f 1/92/93 85/84/93 86/85/93
f 1/92/94 86/85/94 87/86/94
f 1/92/95 87/86/95 88/87/95
f 1/92/96 88/87/96 89/88/96
f 1/92/97 89/88/97 90/89/97
f 1/92/98 90/89/98 91/90/98
f 1/92/99 91/90/99 92/91/99
f 1/92/100 92/91/100 83/82/100
f 97/93/101 93/94/101 106/95/101 104/96/101
f 95/97/102 96/98/102 105/99/102 107/100/102
f 94/101/103 95/97/103 107/100/103 103/102/103
f 104/96/104 102/103/104 101/104/104 105/99/104
f 106/95/105 103/102/105 99/105/105 98/106/105
f 107/100/106 100/107/106 99/105/106 103/102/106
f 106/95/107 98/106/107 102/103/107 104/96/107
f 96/98/108 97/93/108 104/96/108 105/99/108
f 107/100/109 105/99/109 101/104/109 100/107/109
f 93/94/110 94/101/110 103/102/110 106/95/110
