# Blender v2.90.1 OBJ File: 'drzewo1.blend'
# www.blender.org
mtllib drzewo_3.mtl
o drzewo_3_Icosphere.006
v 0.107526 10.071285 0.705202
v -0.108115 10.238442 -1.731220
v -1.313591 11.897919 -0.091059
v 0.085875 11.530923 -1.714501
v 0.867159 11.768097 -0.175525
v -0.500529 12.485168 0.048768
v 0.203376 9.295839 0.077177
v 0.784685 9.637829 -0.642590
v -1.371865 9.875360 -0.066479
v -0.718436 9.215176 -0.908531
v 1.071529 11.096081 -1.050080
v -0.905999 11.218581 0.598518
v -1.262251 10.097551 -1.265811
v -0.980117 11.806029 -1.441592
v 0.117198 12.208913 -1.373254
v 0.916916 6.030412 1.520066
v 1.111457 4.037206 1.826624
v 2.086346 4.323232 1.321355
v 0.540930 3.991355 0.786064
v 1.790894 4.671405 2.262443
v 2.062099 5.248744 1.783863
v 0.215064 4.581017 1.964876
v 1.272696 5.300827 2.251105
v -0.181493 4.634672 0.751940
v 0.958232 4.484381 0.277538
v 0.306389 5.264989 -0.012766
v -0.009922 5.629371 1.308005
v 1.860162 5.391723 0.772222
v -0.791945 10.748086 -0.248668
v -0.937791 9.807052 -0.342177
v -1.642102 9.733720 -0.036611
v -0.833350 10.538510 -0.845875
v -1.104404 10.384633 0.300895
v -2.217277 10.114867 -0.388524
v -2.023408 10.543048 0.183435
v -1.713301 9.996784 -1.152444
v -1.508205 10.858222 -1.077084
v -2.049153 10.852067 -0.634755
v -1.536025 11.267471 -0.355189
v 2.734968 4.782479 1.646464
v 2.545149 3.705195 1.703948
v 2.287707 3.621245 2.544298
v 2.184214 4.542558 1.238631
v 2.981223 4.366403 2.326991
v 1.553793 4.057578 2.783528
v 2.195884 4.547753 3.039849
v 1.263250 3.922398 1.776926
v 1.481306 4.908560 1.654365
v 1.464365 4.901515 2.454129
v 1.881658 5.325613 2.022505
v 2.279745 5.149047 2.476242
v 1.092638 10.348073 -0.803764
v 2.201400 10.976474 -0.914485
v 2.550229 8.939697 -0.788117
v 3.022930 9.231977 -1.805736
v 1.438813 8.892844 -1.273157
v 3.371924 9.587760 -0.860144
v 3.292260 10.177721 -1.416577
v 1.911722 9.495396 -0.116327
v 2.945796 10.230941 -0.545586
v 0.833303 9.550225 -0.849441
v 1.458584 9.396647 -1.945075
v 0.750108 10.194321 -1.772614
v 1.684116 10.490288 -0.249736
v 2.496973 10.323824 -2.108495
v -0.149449 7.047586 -0.706439
v -2.831419 7.182678 -0.866018
v -1.621254 8.772052 0.505290
v -2.891206 8.127417 -0.195593
v -1.085475 8.714615 -1.729237
v -1.344309 9.437047 -0.271755
v -0.630168 6.162040 -0.979908
v -1.242783 6.432786 -1.769854
v -1.298060 6.677071 0.571810
v -1.850119 5.889183 -0.317594
v -1.796188 7.897161 -2.173567
v -0.713101 8.185834 0.292455
v -2.500904 6.738035 0.128856
v -2.354934 6.830970 -1.463918
v -2.435621 8.986346 -0.205968
v -2.730454 8.790645 -1.353366
v -2.084134 6.860156 -0.549813
v -2.221348 5.974817 -0.637788
v -2.883976 5.905824 -0.350306
v -2.123089 6.662983 -1.111674
v -2.378100 6.518214 -0.032775
v -3.425109 6.264414 -0.681392
v -3.242715 6.667252 -0.143284
v -2.950960 6.153319 -1.400099
v -3.068584 7.065188 -1.300399
v -2.784177 7.348802 -0.650029
v 3.123340 9.959403 -0.215684
v 2.466761 10.021502 -0.843842
v 2.792738 10.856160 -0.250325
v 3.025721 9.643416 -0.543600
v 2.358482 9.712447 -0.310857
v 3.097617 10.548940 -0.807580
v 2.672050 10.613516 0.028115
v 2.293938 10.603861 -0.549475
v 2.568868 10.667352 -0.877165
v 0.262217 -0.014789 -0.261252
v -0.261837 -0.014789 -0.261685
v -0.262687 -0.014789 0.261408
v -0.113523 3.004679 -0.169187
v -0.069271 3.531126 0.202392
v 0.230705 3.535091 0.098953
v 0.247900 3.028098 -0.147197
v 0.126787 5.400019 0.158949
v 0.021312 5.988072 -0.188578
v -0.322376 10.391856 -0.406741
v 0.570484 3.226941 0.352112
v 0.200151 3.066648 0.392286
v 0.505371 3.419316 0.318883
v -0.263447 5.649069 -0.478956
v -0.989926 5.717503 -0.977069
v 0.682035 7.839075 -0.215581
v 1.642281 8.702508 -1.158430
v 0.622193 7.743662 0.039525
v 0.325586 7.952291 -0.085860
v 0.462162 8.076271 -0.138939
v 0.039733 2.988342 -0.225052
v 0.150943 2.518609 0.251982
v 0.445092 3.093964 0.434497
v -0.169823 3.158657 0.003926
v -0.228725 5.451117 0.060256
v 0.198728 3.284725 0.470100
v -0.126464 2.672585 0.194392
v 0.292658 2.568362 0.044057
v 0.353879 3.418809 0.356555
v -0.030045 5.448781 0.206675
v -0.219353 4.905873 -0.117277
v 0.497650 8.100963 0.029794
v 0.180864 5.389864 -0.006747
v -0.398839 5.299804 -0.309919
v -0.026966 4.943799 -0.216257
v -0.238572 5.450931 -0.528613
v 0.156842 5.680882 -0.219206
v -0.109220 5.969586 0.079151
v 0.442341 7.803375 0.103179
v 0.338567 7.553973 -0.056697
v 0.514251 7.487610 -0.115622
v 0.685813 8.018155 -0.058806
v 0.360441 -0.014789 0.000020
v 0.000136 -0.014789 -0.360445
v -0.360452 -0.014789 -0.000013
v 0.000119 -0.014789 0.360446
v 0.261116 -0.014789 0.262359
v 0.116545 4.960986 -0.153771
v -0.266957 9.051098 -0.221789
v -0.232243 9.088170 -0.056311
v -0.070766 9.131940 -0.100765
v -0.104771 9.095448 -0.264427
v 1.366431 3.775478 1.333630
v 1.269138 3.735871 1.446921
v 1.163262 3.831611 1.392948
v 1.263860 3.880423 1.286190
v 1.367586 4.899405 1.957052
v -1.043969 5.599127 -1.083178
v -0.426762 5.689339 -0.345353
v -0.870689 5.543539 -1.133844
v -0.840152 5.735380 -1.181094
v -0.900618 5.803477 -1.045792
v -1.118263 5.822731 -1.197719
v -1.947836 7.285443 -0.900716
v 0.698590 8.065308 -0.306788
v 1.733099 8.646141 -1.062827
v 1.693754 8.743583 -0.967432
v 1.588007 8.781151 -1.050863
v 2.297471 9.787178 -1.138147
vt 0.888804 0.853848
vt 0.888804 0.853848
vt 0.888804 0.853848
vt 0.888804 0.853848
vt 0.888804 0.853848
vt 0.888804 0.853848
vt 0.888804 0.853848
vt 0.888804 0.853848
vt 0.888804 0.853848
vt 0.888804 0.853848
vt 0.888804 0.853848
vt 0.888804 0.853848
vt 0.888804 0.853848
vt 0.888804 0.853848
vt 0.888804 0.853848
vt 0.888804 0.853848
vt 0.888804 0.853848
vt 0.888804 0.853848
vt 0.888804 0.853848
vt 0.888804 0.853848
vt 0.888804 0.853848
vt 0.888804 0.853848
vt 0.888804 0.853848
vt 0.888804 0.853848
vt 0.888804 0.853848
vt 0.888804 0.853848
vt 0.888804 0.853848
vt 0.888804 0.853848
vt 0.888804 0.853848
vt 0.888804 0.853848
vt 0.888804 0.853848
vt 0.888804 0.853848
vt 0.888804 0.853848
vt 0.888804 0.853848
vt 0.888804 0.853848
vt 0.888804 0.853848
vt 0.888804 0.853848
vt 0.888804 0.853848
vt 0.888804 0.853848
vt 0.888804 0.853848
vt 0.888804 0.853848
vt 0.888804 0.853848
vt 0.888804 0.853848
vt 0.888804 0.853848
vt 0.888804 0.853848
vt 0.888804 0.853848
vt 0.888804 0.853848
vt 0.888804 0.853848
vt 0.888804 0.853848
vt 0.888804 0.853848
vt 0.888804 0.853848
vt 0.888804 0.853848
vt 0.888804 0.853848
vt 0.888804 0.853848
vt 0.888804 0.853848
vt 0.888804 0.853848
vt 0.888804 0.853848
vt 0.888804 0.853848
vt 0.888804 0.853848
vt 0.888804 0.853848
vt 0.888804 0.853848
vt 0.888804 0.853848
vt 0.888804 0.853848
vt 0.888804 0.853848
vt 0.888804 0.853848
vt 0.888804 0.853848
vt 0.888804 0.853848
vt 0.888804 0.853848
vt 0.888804 0.853848
vt 0.888804 0.853848
vt 0.888804 0.853848
vt 0.888804 0.853848
vt 0.888804 0.853848
vt 0.888804 0.853848
vt 0.888804 0.853848
vt 0.888804 0.853848
vt 0.888804 0.853848
vt 0.888804 0.853848
vt 0.888804 0.853848
vt 0.888804 0.853848
vt 0.888804 0.853848
vt 0.888804 0.853848
vt 0.888804 0.853848
vt 0.888804 0.853848
vt 0.888804 0.853848
vt 0.888804 0.853848
vt 0.888804 0.853848
vt 0.888804 0.853848
vt 0.888804 0.853848
vt 0.888804 0.853848
vt 0.888804 0.853848
vt 0.888804 0.853848
vt 0.888804 0.853848
vt 0.888804 0.853848
vt 0.888804 0.853848
vt 0.888804 0.853848
vt 0.888804 0.853848
vt 0.888804 0.853848
vt 0.888804 0.853848
vt 0.888804 0.853848
vt 0.715033 0.751000
vt 0.715033 0.751000
vt 0.715033 0.751000
vt 0.715033 0.751000
vt 0.715033 0.751000
vt 0.715033 0.751000
vt 0.715033 0.751000
vt 0.715033 0.751000
vt 0.715033 0.751000
vt 0.715033 0.751000
vt 0.715033 0.751000
vt 0.715033 0.751000
vt 0.715033 0.751000
vt 0.715033 0.751000
vt 0.715033 0.751000
vt 0.715033 0.751000
vt 0.715033 0.751000
vt 0.715033 0.751000
vt 0.715033 0.751000
vt 0.715033 0.751000
vt 0.715033 0.751000
vt 0.715033 0.751000
vt 0.715033 0.751000
vt 0.715033 0.751000
vt 0.715033 0.751000
vt 0.715033 0.751000
vt 0.715033 0.751000
vt 0.715033 0.751000
vt 0.715033 0.751000
vt 0.715033 0.751000
vt 0.715033 0.751000
vt 0.715033 0.751000
vt 0.715033 0.751000
vt 0.715033 0.751000
vt 0.715033 0.751000
vt 0.715033 0.751000
vt 0.715033 0.751000
vt 0.715033 0.751000
vt 0.715033 0.751000
vt 0.715033 0.751000
vt 0.715033 0.751000
vt 0.715033 0.751000
vt 0.715033 0.751000
vt 0.715033 0.751000
vt 0.715033 0.751000
vt 0.715033 0.751000
vt 0.715033 0.751000
vt 0.715033 0.751000
vt 0.715033 0.751000
vt 0.715033 0.751000
vt 0.715033 0.751000
vt 0.715033 0.751000
vt 0.715033 0.751000
vt 0.715033 0.751000
vt 0.715033 0.751000
vt 0.715033 0.751000
vt 0.715033 0.751000
vt 0.715033 0.751000
vt 0.715033 0.751000
vt 0.715033 0.751000
vt 0.715033 0.751000
vt 0.715033 0.751000
vt 0.715033 0.751000
vt 0.715033 0.751000
vt 0.715033 0.751000
vt 0.715033 0.751000
vt 0.715033 0.751000
vt 0.715033 0.751000
vt 0.715033 0.751000
vn 0.8063 -0.3089 0.5044
vn 0.2981 -0.9328 -0.2025
vn 0.8663 -0.1388 0.4799
vn -0.3702 -0.0344 -0.9283
vn -0.9959 0.0277 -0.0859
vn 0.5363 -0.0696 -0.8412
vn 0.3037 0.2959 0.9057
vn -0.4702 0.4737 0.7446
vn -0.1104 0.4509 -0.8857
vn 0.4682 0.8830 0.0318
vn -0.3107 0.8987 -0.3095
vn -0.5528 0.8110 -0.1917
vn 0.7685 0.5814 -0.2672
vn 0.6233 0.3284 -0.7097
vn -0.2361 0.0480 -0.9705
vn -0.9600 0.1332 -0.2461
vn 0.2870 0.3369 0.8967
vn -0.8468 0.0309 0.5309
vn -0.4134 -0.2848 0.8649
vn 0.9483 -0.1026 0.3004
vn 0.6377 -0.3211 -0.7002
vn 0.3107 -0.7012 -0.6417
vn -0.2707 -0.4999 -0.8227
vn -0.8037 -0.5676 -0.1786
vn -0.3487 -0.8497 0.3956
vn -0.2953 -0.6231 0.7243
vn -0.4631 -0.8373 0.2908
vn 0.9771 0.1150 -0.1788
vn 0.5631 0.8264 0.0044
vn 0.1815 0.8490 -0.4962
vn -0.3131 0.8936 -0.3215
vn -0.4032 0.5421 0.7373
vn 0.3777 0.7408 0.5555
vn 0.4478 0.0418 -0.8931
vn -0.8957 0.3245 -0.3040
vn -0.9506 -0.0095 0.3104
vn -0.4785 0.3902 0.7866
vn 0.4840 0.4124 0.7718
vn 0.6408 -0.2393 -0.7295
vn -0.3766 -0.5824 -0.7204
vn -0.1769 -0.1281 0.9759
vn 0.9265 -0.1485 0.3458
vn 0.3427 -0.7993 -0.4937
vn -0.3903 -0.4800 -0.7857
vn -0.6586 -0.7299 0.1830
vn 0.4524 -0.7808 0.4309
vn 0.2382 -0.9672 -0.0880
vn -0.1400 -0.4545 0.8797
vn 0.9014 -0.1789 0.3942
vn -0.1760 -0.3346 0.9258
vn 0.5740 0.7594 -0.3063
vn 0.5015 0.7608 -0.4119
vn -0.3897 0.7946 -0.4655
vn -0.6909 0.6688 0.2743
vn -0.6199 0.2136 -0.7551
vn -0.9567 0.2612 0.1287
vn 0.0003 0.5966 0.8026
vn 0.3704 0.6639 0.6497
vn 0.3262 0.0050 -0.9453
vn -0.8343 0.0061 -0.5513
vn -0.6660 -0.4710 0.5784
vn 0.9883 -0.1517 -0.0153
vn 0.5498 -0.5256 -0.6492
vn 0.0017 -0.9733 -0.2296
vn -0.4675 -0.8666 -0.1745
vn 0.3594 -0.6461 0.6734
vn 0.8851 -0.1789 -0.4297
vn 0.5898 -0.3346 0.7349
vn 0.1725 0.7294 -0.6620
vn -0.0631 0.6938 -0.7174
vn -0.7174 0.6966 -0.0091
vn -0.2581 0.8021 0.5386
vn -0.2261 0.6828 0.6948
vn 0.5007 0.8592 -0.1049
vn -0.9767 0.2136 -0.0188
vn -0.5232 0.2612 0.8112
vn 0.6505 0.4691 0.5973
vn 0.7506 0.6489 0.1251
vn -0.5071 0.0050 -0.8619
vn -0.9610 0.0061 0.2766
vn 0.0075 -0.4710 0.8821
vn 0.6300 -0.1517 -0.7616
vn -0.1369 -0.5256 -0.8397
vn -0.1735 -0.9733 -0.1504
vn -0.4362 -0.8666 0.2423
vn 0.7455 -0.6461 0.1638
vn -0.1887 -0.8373 0.5132
vn 0.6640 0.1150 -0.7389
vn -0.4548 0.8495 0.2674
vn 0.4483 0.8264 -0.3407
vn -0.1598 0.8490 -0.5036
vn -0.4901 0.8710 0.0351
vn 0.2976 0.6453 0.7036
vn 0.6385 0.7408 0.2087
vn -0.1916 0.0418 -0.9806
vn -0.9177 0.2823 0.2796
vn -0.6951 0.1862 0.6943
vn -0.5627 -0.0179 0.8264
vn 0.2605 0.1866 0.9473
vn 0.8549 0.4124 0.3148
vn 0.0611 -0.2393 -0.9690
vn -0.7385 -0.5824 -0.3398
vn 0.4566 -0.1281 0.8804
vn 0.9446 -0.1485 -0.2927
vn -0.0307 -0.7993 -0.6002
vn -0.7892 -0.4800 -0.3831
vn -0.4093 -0.7299 0.5475
vn 0.6215 -0.7808 0.0644
vn 0.1347 -0.9672 -0.2152
vn 0.4270 -0.4545 0.7818
vn 0.7389 -0.2027 -0.6425
vn 0.0249 -0.9396 -0.3413
vn 0.7072 -0.0362 -0.7061
vn -0.9514 -0.2160 0.2195
vn -0.3465 -0.0237 0.9377
vn 0.9010 0.4305 -0.0534
vn 0.5116 0.5542 0.6566
vn -0.5761 0.3147 0.7544
vn -0.0622 0.8898 -0.4521
vn -0.3841 0.9214 -0.0585
vn -0.8733 0.4650 0.1451
vn -0.2866 0.7760 0.5619
vn -0.1572 0.5736 -0.8039
vn -0.7069 -0.0959 -0.7007
vn -0.9920 0.0249 -0.1235
vn -0.5052 0.0591 0.8610
vn 0.8814 0.4708 -0.0392
vn -0.8101 -0.1229 -0.5733
vn 0.2716 0.0724 0.9597
vn 0.7570 -0.1771 0.6289
vn 0.5488 -0.0230 -0.8356
vn -0.3680 -0.3738 -0.8514
vn -0.4090 -0.7852 -0.4650
vn -0.7354 -0.6454 -0.2064
vn -0.7953 -0.6062 -0.0067
vn -0.3000 -0.6140 0.7301
vn 0.4180 -0.7931 0.4431
vn 0.7019 -0.5285 0.4775
vn 0.4208 0.7496 -0.5109
vn -0.7956 0.5996 0.0865
vn -0.9126 0.4088 0.0033
vn 0.2496 0.1370 -0.9586
vn -0.8372 -0.0484 -0.5448
vn 0.9775 -0.1268 -0.1688
vn -0.9506 -0.1427 -0.2758
vn 0.1149 -0.0693 -0.9910
vn 0.8911 0.0712 0.4483
vn 0.2487 0.8993 -0.3597
vn -0.3786 0.9149 -0.1404
vn -0.5869 0.7190 0.3722
vn -0.7715 0.0895 -0.6299
vn -0.8343 0.0854 0.5447
vn 0.8205 0.4225 0.3852
vn -0.0031 -0.3511 0.9363
vn 0.2939 -0.2889 -0.9111
vn -0.2663 -0.8094 -0.5234
vn 0.1547 -0.7340 0.6613
vn -0.3938 -0.5956 -0.7002
vn -0.3090 -0.2097 0.9276
vn 0.7344 0.3164 -0.6005
vn -0.5891 0.1066 0.8010
vn 0.0899 0.9232 0.3738
vn 0.1131 0.9248 0.3634
vn 0.6665 -0.1691 -0.7261
vn -0.9306 0.0586 0.3614
vn -0.4995 0.8463 -0.1851
vn -0.3439 -0.0797 -0.9356
vn -0.3655 -0.0890 -0.9266
vn -0.8467 0.0113 0.5319
vn 0.9072 -0.4169 0.0569
vn -0.9613 -0.0461 -0.2716
vn -0.5931 0.0103 0.8050
vn 0.9505 0.0431 0.3076
vn 0.9316 -0.1809 0.3151
vn -0.0660 0.0701 -0.9954
vn -0.8838 0.2141 -0.4161
vn -0.9438 0.2816 0.1733
vn -0.4904 0.1362 0.8608
vn -0.2689 0.1348 -0.9537
vn 0.3265 -0.0240 0.9449
vn -0.9781 -0.0118 0.2078
vn 0.9634 0.1364 -0.2306
vn 0.6746 -0.7243 -0.1423
vn 0.7637 0.2455 -0.5971
vn -0.6446 0.4789 0.5960
vn -0.8150 -0.1333 0.5639
vn -0.4367 0.7931 0.4247
vn -0.0163 -0.2367 -0.9715
vn 0.8178 0.5702 0.0785
vn -0.5738 -0.3857 0.7225
vn -0.4113 -0.3148 -0.8554
vn -0.5497 0.2666 -0.7917
vn -0.5299 -0.2835 -0.7993
vn 0.1316 -0.7942 -0.5933
vn 0.4882 -0.8488 -0.2030
vn 0.7770 -0.2514 0.5772
vn 0.7197 -0.3151 0.6187
vn -0.6584 0.4095 -0.6316
vn 0.1661 0.2069 0.9642
vn -0.3044 -0.5268 -0.7936
vn 0.6448 0.0871 -0.7594
vn 0.3517 0.0191 0.9359
vn -0.0764 0.6944 0.7156
vn 0.4076 -0.1053 -0.9071
vn 0.5120 0.2688 -0.8159
vn 0.4775 0.2933 -0.8282
vn 0.7792 -0.5034 0.3734
vn 0.8554 -0.1258 -0.5025
vn 0.9746 -0.0738 -0.2112
vn -0.8403 0.1750 0.5131
vn -0.2958 0.7525 -0.5884
vn -0.8682 -0.1671 0.4673
vn 0.2877 -0.0120 0.9576
vn 0.0022 -0.8454 0.5342
vn -0.5866 0.7976 0.1404
vn -0.0944 0.9254 -0.3671
vn -0.4447 0.8957 -0.0095
vn -0.2658 0.0470 0.9629
vn 0.5024 -0.8544 0.1328
vn -0.7491 0.4158 -0.5157
vn 0.7722 -0.3088 0.5552
vn 0.6690 0.3600 -0.6502
vn 0.2643 -0.8731 -0.4097
vn -0.3281 -0.9403 -0.0903
vn 0.6427 -0.2781 -0.7138
vn -0.7792 -0.3669 0.5081
vn 0.1430 0.2742 -0.9510
vn -0.3891 -0.5191 -0.7610
vn -0.8580 -0.4294 -0.2818
vn 0.4450 0.2297 0.8656
vn 0.1815 0.9643 0.1927
vn 0.6053 0.1404 0.7835
vn -0.5548 0.8221 0.1277
vn -0.7431 0.3032 -0.5966
vn -0.1227 0.8375 0.5326
vn 0.5769 -0.3345 -0.7452
vn -0.4746 0.4026 0.7828
vn 0.3134 0.9280 -0.2017
vn 0.1996 0.2307 0.9523
vn -0.9344 0.0559 0.3519
vn -0.9340 0.0566 -0.3528
vn -0.3470 0.0463 -0.9367
vn 0.3494 0.0372 -0.9363
vn 0.9595 0.0219 -0.2809
vn 0.8884 0.0279 0.4583
vn 0.4255 -0.4640 0.7770
vn 0.3679 0.0193 -0.9297
vn -0.4086 -0.0039 -0.9127
vn -0.9506 -0.0320 0.3087
vn 0.3132 -0.0108 0.9496
vn 0.9232 -0.1647 -0.3471
vn -0.6114 -0.0314 0.7907
vn -0.2151 -0.1422 -0.9662
vn -0.5890 -0.2595 0.7653
vn 0.1878 0.2671 0.9452
vn 0.7061 0.2152 -0.6747
vn 0.3244 0.9396 -0.1087
vn -0.6200 -0.2704 0.7365
vn -0.1837 -0.2189 -0.9583
vn -0.8700 -0.4334 0.2350
vn 0.8580 0.4426 -0.2608
vn 0.9762 0.0404 -0.2131
vn 0.4335 0.1752 0.8839
usemtl None
s off
f 1/1/1 7/2/1 8/3/1
f 7/2/2 10/4/2 8/3/2
f 1/1/3 8/3/3 5/5/3
f 2/6/4 13/7/4 14/8/4
f 9/9/5 3/10/5 13/7/5
f 2/6/6 4/11/6 11/12/6
f 12/13/7 5/5/7 6/14/7
f 3/10/8 12/13/8 6/14/8
f 4/11/9 14/8/9 15/15/9
f 5/5/10 15/15/10 6/14/10
f 15/15/11 14/8/11 6/14/11
f 14/8/12 3/10/12 6/14/12
f 11/12/13 15/15/13 5/5/13
f 11/12/14 4/11/14 15/15/14
f 2/6/15 14/8/15 4/11/15
f 13/7/16 3/10/16 14/8/16
f 1/1/17 5/5/17 12/13/17
f 3/10/18 9/9/18 12/13/18
f 9/9/19 1/1/19 12/13/19
f 5/5/20 8/3/20 11/12/20
f 8/3/21 2/6/21 11/12/21
f 8/3/22 10/4/22 2/6/22
f 10/4/23 13/7/23 2/6/23
f 10/4/24 9/9/24 13/7/24
f 10/4/25 7/2/25 9/9/25
f 7/2/26 1/1/26 9/9/26
f 19/16/27 17/17/27 22/18/27
f 18/19/28 28/20/28 21/21/28
f 16/22/29 21/21/29 28/20/29
f 28/20/30 26/23/30 16/22/30
f 26/23/31 27/24/31 16/22/31
f 27/24/32 23/25/32 16/22/32
f 23/25/33 21/21/33 16/22/33
f 28/20/34 25/26/34 26/23/34
f 26/23/35 24/27/35 27/24/35
f 24/27/36 22/18/36 27/24/36
f 22/18/37 23/25/37 27/24/37
f 20/28/38 21/21/38 23/25/38
f 18/19/39 25/26/39 28/20/39
f 25/26/40 24/27/40 26/23/40
f 22/18/41 20/28/41 23/25/41
f 20/28/42 18/19/42 21/21/42
f 19/16/43 25/26/43 18/19/43
f 19/16/44 24/27/44 25/26/44
f 19/16/45 22/18/45 24/27/45
f 20/28/46 17/17/46 18/19/46
f 17/17/47 19/16/47 18/19/47
f 17/17/48 20/28/48 22/18/48
f 33/29/49 30/30/49 29/31/49
f 31/32/50 33/29/50 35/33/50
f 29/31/51 32/34/51 39/35/51
f 32/34/52 37/36/52 39/35/52
f 37/36/53 38/37/53 39/35/53
f 38/37/54 35/33/54 39/35/54
f 36/38/55 38/37/55 37/36/55
f 34/39/56 35/33/56 38/37/56
f 35/33/57 33/29/57 39/35/57
f 33/29/58 29/31/58 39/35/58
f 32/34/59 36/38/59 37/36/59
f 36/38/60 34/39/60 38/37/60
f 34/39/61 31/32/61 35/33/61
f 29/31/62 30/30/62 32/34/62
f 30/30/63 36/38/63 32/34/63
f 30/30/64 31/32/64 36/38/64
f 31/32/65 34/39/65 36/38/65
f 30/30/66 33/29/66 31/32/66
f 44/40/67 41/41/67 40/42/67
f 42/43/68 44/40/68 46/44/68
f 40/42/69 43/45/69 50/46/69
f 43/45/70 48/47/70 50/46/70
f 48/47/71 49/48/71 50/46/71
f 50/46/72 49/48/72 51/49/72
f 49/48/73 46/44/73 51/49/73
f 51/49/74 40/42/74 50/46/74
f 47/50/75 49/48/75 48/47/75
f 45/51/76 46/44/76 49/48/76
f 46/44/77 44/40/77 51/49/77
f 44/40/78 40/42/78 51/49/78
f 43/45/79 47/50/79 48/47/79
f 47/50/80 45/51/80 49/48/80
f 45/51/81 42/43/81 46/44/81
f 40/42/82 41/41/82 43/45/82
f 41/41/83 47/50/83 43/45/83
f 41/41/84 42/43/84 47/50/84
f 42/43/85 45/51/85 47/50/85
f 41/41/86 44/40/86 42/43/86
f 56/52/87 54/53/87 59/54/87
f 55/55/88 65/56/88 58/57/88
f 52/58/89 64/59/89 53/60/89
f 53/60/90 58/57/90 65/56/90
f 65/56/91 63/61/91 53/60/91
f 63/61/92 52/58/92 53/60/92
f 64/59/93 60/62/93 53/60/93
f 60/62/94 58/57/94 53/60/94
f 65/56/95 62/63/95 63/61/95
f 63/61/96 61/64/96 52/58/96
f 61/64/97 64/59/97 52/58/97
f 61/64/98 59/54/98 64/59/98
f 59/54/99 60/62/99 64/59/99
f 57/65/100 58/57/100 60/62/100
f 55/55/101 62/63/101 65/56/101
f 62/63/102 61/64/102 63/61/102
f 59/54/103 57/65/103 60/62/103
f 57/65/104 55/55/104 58/57/104
f 56/52/105 62/63/105 55/55/105
f 56/52/106 61/64/106 62/63/106
f 56/52/107 59/54/107 61/64/107
f 57/65/108 54/53/108 55/55/108
f 54/53/109 56/52/109 55/55/109
f 54/53/110 57/65/110 59/54/110
f 66/66/111 72/67/111 73/68/111
f 72/67/112 75/69/112 73/68/112
f 66/66/113 73/68/113 70/70/113
f 67/71/114 78/72/114 69/73/114
f 74/74/115 68/75/115 78/72/115
f 77/76/116 70/70/116 71/77/116
f 68/75/117 77/76/117 71/77/117
f 69/73/118 68/75/118 80/78/118
f 70/70/119 81/79/119 71/77/119
f 81/79/120 80/78/120 71/77/120
f 81/79/121 69/73/121 80/78/121
f 80/78/122 68/75/122 71/77/122
f 76/80/123 81/79/123 70/70/123
f 76/80/124 79/81/124 81/79/124
f 67/71/125 69/73/125 81/79/125
f 78/72/126 68/75/126 69/73/126
f 66/66/127 70/70/127 77/76/127
f 79/81/128 67/71/128 81/79/128
f 68/75/129 74/74/129 77/76/129
f 74/74/130 66/66/130 77/76/130
f 70/70/131 73/68/131 76/80/131
f 73/68/132 79/81/132 76/80/132
f 73/68/133 75/69/133 79/81/133
f 75/69/134 67/71/134 79/81/134
f 75/69/135 78/72/135 67/71/135
f 75/69/136 74/74/136 78/72/136
f 75/69/137 72/67/137 74/74/137
f 72/67/138 66/66/138 74/74/138
f 86/82/49 83/83/49 82/84/49
f 84/85/50 86/82/50 88/86/50
f 82/84/51 85/87/51 91/88/51
f 85/87/139 90/89/139 91/88/139
f 90/89/140 88/86/140 91/88/140
f 87/90/141 88/86/141 90/89/141
f 88/86/57 86/82/57 91/88/57
f 86/82/58 82/84/58 91/88/58
f 85/87/142 89/91/142 90/89/142
f 89/91/143 87/90/143 90/89/143
f 87/90/61 84/85/61 88/86/61
f 82/84/62 83/83/62 85/87/62
f 83/83/63 89/91/63 85/87/63
f 83/83/64 84/85/64 89/91/64
f 84/85/65 87/90/65 89/91/65
f 83/83/66 86/82/66 84/85/66
f 92/92/144 95/93/144 97/94/144
f 93/95/145 96/96/145 99/97/145
f 93/95/146 100/98/146 97/94/146
f 98/99/147 97/94/147 94/100/147
f 97/94/148 100/98/148 94/100/148
f 100/98/149 99/97/149 94/100/149
f 99/97/150 98/99/150 94/100/150
f 93/95/151 99/97/151 100/98/151
f 96/96/152 98/99/152 99/97/152
f 92/92/153 97/94/153 98/99/153
f 96/96/154 92/92/154 98/99/154
f 95/93/155 93/95/155 97/94/155
f 95/93/156 96/96/156 93/95/156
f 95/93/157 92/92/157 96/96/157
f 135/101/158 134/102/158 136/103/158
f 127/104/159 122/105/159 112/106/159
f 106/107/160 111/108/160 107/109/160
f 125/110/161 130/111/161 138/112/161
f 106/107/162 129/113/162 113/114/162
f 106/107/163 105/115/163 129/113/163
f 136/103/164 137/116/164 135/101/164
f 124/117/165 127/104/165 105/115/165
f 109/118/166 159/119/166 138/112/166
f 119/120/167 141/121/167 140/122/167
f 119/120/168 116/123/168 141/121/168
f 140/122/169 139/124/169 119/120/169
f 141/121/170 116/123/170 118/125/170
f 124/117/171 131/126/171 104/127/171
f 105/115/172 130/111/172 125/110/172
f 106/107/173 133/128/173 108/129/173
f 133/128/174 118/125/174 108/129/174
f 109/118/175 141/121/175 137/116/175
f 138/112/176 140/122/176 109/118/176
f 138/112/177 139/124/177 140/122/177
f 130/111/178 139/124/178 138/112/178
f 109/118/179 140/122/179 141/121/179
f 130/111/180 118/125/180 139/124/180
f 150/130/181 110/131/181 149/132/181
f 152/133/182 110/131/182 151/134/182
f 153/135/183 123/136/183 111/108/183
f 114/137/184 136/103/184 161/138/184
f 115/139/185 125/110/185 159/119/185
f 115/139/186 158/140/186 125/110/186
f 115/139/187 159/119/187 162/141/187
f 163/142/188 161/138/188 160/143/188
f 164/144/189 162/141/189 161/138/189
f 158/140/190 115/139/190 164/144/190
f 116/123/191 119/120/191 165/145/191
f 165/145/192 119/120/192 120/146/192
f 116/123/193 165/145/193 117/147/193
f 117/147/194 166/148/194 116/123/194
f 118/125/195 116/123/195 166/148/195
f 166/148/196 167/149/196 118/125/196
f 169/150/197 167/149/197 166/148/197
f 169/150/198 117/147/198 168/151/198
f 139/124/199 132/152/199 150/130/199
f 131/126/200 134/102/200 135/101/200
f 113/114/201 111/108/201 106/107/201
f 146/153/202 147/154/202 122/105/202
f 129/113/203 105/115/203 126/155/203
f 148/156/204 135/101/204 137/116/204
f 114/137/205 109/118/205 136/103/205
f 137/116/206 136/103/206 109/118/206
f 111/108/207 123/136/207 128/157/207
f 107/109/208 111/108/208 128/157/208
f 133/128/209 148/156/209 137/116/209
f 125/110/210 138/112/210 159/119/210
f 109/118/211 114/137/211 159/119/211
f 125/110/212 134/102/212 131/126/212
f 130/111/213 108/129/213 118/125/213
f 154/158/214 112/106/214 123/136/214
f 155/159/215 129/113/215 126/155/215
f 156/160/216 113/114/216 129/113/216
f 155/159/217 156/160/217 129/113/217
f 122/105/218 127/104/218 103/161/218 146/153/218
f 153/135/219 154/158/219 123/136/219
f 155/159/220 157/162/220 156/160/220
f 153/135/221 157/162/221 154/158/221
f 156/160/222 157/162/222 153/135/222
f 160/143/223 136/103/223 134/102/223
f 158/140/224 160/143/224 134/102/224
f 160/143/225 161/138/225 136/103/225
f 125/110/226 158/140/226 134/102/226
f 163/142/227 164/144/227 161/138/227
f 163/142/228 160/143/228 158/140/228
f 158/140/229 164/144/229 163/142/229
f 164/144/230 115/139/230 162/141/230
f 165/145/231 120/146/231 142/163/231
f 118/125/232 167/149/232 142/163/232
f 168/151/233 165/145/233 142/163/233
f 168/151/234 117/147/234 165/145/234
f 167/149/235 168/151/235 142/163/235
f 117/147/236 169/150/236 166/148/236
f 167/149/237 169/150/237 168/151/237
f 132/152/238 142/163/238 120/146/238
f 150/130/239 132/152/239 151/134/239
f 145/164/240 103/161/240 127/104/240 124/117/240
f 145/164/241 124/117/241 104/127/241 102/165/241
f 144/166/242 102/165/242 104/127/242 121/167/242
f 121/167/243 107/109/243 101/168/243 144/166/243
f 101/168/244 107/109/244 128/157/244 143/169/244
f 143/169/245 128/157/245 122/105/245 147/154/245
f 112/106/246 122/105/246 128/157/246 123/136/246
f 107/109/247 121/167/247 135/101/247 148/156/247
f 104/127/248 131/126/248 135/101/248 121/167/248
f 105/115/249 125/110/249 131/126/249 124/117/249
f 108/129/250 130/111/250 105/115/250 106/107/250
f 133/128/251 137/116/251 141/121/251 118/125/251
f 112/106/252 126/155/252 105/115/252 127/104/252
f 152/133/253 149/132/253 110/131/253
f 154/158/254 155/159/254 126/155/254 112/106/254
f 110/131/255 150/130/255 151/134/255
f 156/160/256 153/135/256 111/108/256 113/114/256
f 162/141/257 159/119/257 114/137/257 161/138/257
f 155/159/258 154/158/258 157/162/258
f 120/146/259 119/120/259 149/132/259 152/133/259
f 119/120/260 139/124/260 150/130/260 149/132/260
f 120/146/261 152/133/261 151/134/261 132/152/261
f 107/109/262 148/156/262 133/128/262 106/107/262
f 139/124/263 118/125/263 142/163/263 132/152/263
