# Blender v2.90.1 OBJ File: 'drzewo1.blend'
# www.blender.org
mtllib drzewo_4.mtl
o drzewo_4_Cylinder.001
v 0.112248 0.436917 -0.434803
v -0.083643 2.106418 -0.283528
v 0.327544 0.375582 -0.126677
v 0.215355 2.225566 -0.111509
v 0.179958 0.399109 0.329853
v 0.110102 2.193242 0.236323
v -0.294380 0.474984 0.328793
v -0.248156 2.224894 0.235881
v -0.439951 0.498351 -0.128391
v -0.358444 2.234656 -0.106307
v 0.000000 -0.013046 -0.711209
v 0.676400 -0.013046 -0.219775
v 0.264679 -0.013046 0.707598
v -0.418038 -0.013046 0.575380
v -0.717413 -0.013046 -0.420416
v 0.247365 4.054526 -0.066179
v 0.043686 4.054526 -0.214161
v 0.169566 4.054526 0.173260
v -0.082195 4.054526 0.173260
v -0.159993 4.054526 -0.066179
v 1.546366 3.975179 0.931518
v 0.569919 3.664876 0.949817
v -0.231304 3.920263 0.024428
v 1.716951 4.827475 0.422893
v 1.578016 3.588349 0.367974
v 1.201480 3.417010 0.010516
v 0.562484 3.424430 0.158444
v 0.847080 3.668199 -0.721448
v 1.788698 4.304883 -0.132295
v 0.936391 4.434566 1.383169
v 1.340962 4.427082 1.006608
v -0.236845 4.029635 0.476810
v -0.032658 4.553253 1.019404
v 0.251861 3.926201 -0.764194
v 1.336594 4.419005 -0.651652
v 0.688140 4.990531 -0.754062
v -0.049448 4.975445 -0.142943
v 1.472680 4.899143 -0.317787
v 0.652295 5.141043 0.757702
v 1.001808 5.342273 0.247235
v 0.323273 5.258965 0.478152
v 0.541409 5.420133 -0.322220
v 0.196331 5.210034 1.065347
v 0.487867 7.228126 -0.018037
v 1.070357 4.757772 0.535095
v 1.507658 5.116693 -0.734013
v -0.454629 5.400961 0.319837
v 0.104390 4.714421 -0.080988
v -0.186004 5.316072 -0.538113
v 1.821567 5.546182 0.430151
v 1.728873 6.345757 -0.252357
v 0.698676 5.743733 1.376787
v 1.437519 6.382649 0.808440
v -0.280480 5.806467 0.617498
v 0.391367 5.471710 -1.082299
v -0.591920 6.218187 -0.640180
v 0.307750 6.712820 1.210858
v 1.020147 7.127028 0.500417
v -0.116787 6.683963 0.530049
v 1.041558 6.516632 -1.094814
v -0.345262 3.794793 0.596644
v -1.430571 3.873532 1.021975
v -0.965550 4.301850 -1.336642
v -0.064187 5.362189 -0.892828
v -0.426698 5.659332 -0.687430
v -1.244651 6.015323 -0.058140
v -1.083551 3.438256 0.399031
v 0.091799 3.530674 -0.304812
v -0.609426 3.398541 -0.950741
v -1.522689 3.512708 -0.318257
v -1.844167 3.947042 0.056132
v -1.740806 3.806450 -0.935272
v -0.302854 3.741799 -1.151523
v 0.428907 4.624578 -0.743921
v 0.320886 4.605986 0.174141
v -2.027816 5.033833 0.205860
v -1.883010 4.380952 -1.389119
v -1.042262 4.413768 1.182812
v -0.933797 5.301753 -1.459468
v -0.197645 5.463289 0.479595
v -1.662064 5.403797 -0.914535
v -1.929557 6.429562 -0.242286
v -1.406656 5.564314 -0.288333
v -0.307556 5.510134 0.202604
v -1.620728 7.154524 0.111991
v -1.908296 5.967825 0.619878
v -1.177866 5.479380 0.470463
v -0.946591 5.945992 1.230830
v -1.512167 7.051092 0.792429
v -1.558307 6.309607 -0.808728
v -0.441973 5.530980 -0.224811
v -0.610018 5.979819 -0.805360
v -0.362880 5.868016 1.016998
v -1.054838 6.789368 1.064876
v -0.280034 6.949046 0.786037
v 0.041201 6.483621 0.056351
v -0.787207 7.245634 -0.103984
v -0.627021 6.899918 -0.554402
v -0.168024 7.163855 0.232975
v 0.442002 4.313271 -1.502846
v -0.011367 5.772894 -1.443416
v 0.647440 5.621989 -0.616928
v 0.382480 5.521853 -0.372637
v -0.215362 5.128290 -0.019987
v -0.097614 4.398553 -1.788323
v 0.761450 4.915524 -1.832501
v 0.248924 5.356003 -2.027932
v -0.653549 4.722996 -1.478745
v -0.468428 5.162327 -1.908533
v 0.472998 5.553073 -1.814288
v 1.007842 5.400233 -1.120237
v 0.928890 4.741877 -0.989824
v -0.787778 4.786194 -0.679399
v -0.681939 5.822740 -1.395155
v -0.236403 3.897620 -1.155312
v 0.011841 6.017081 -0.748762
v 0.549895 4.657976 -0.329948
v -0.520449 5.644000 -0.590620
v 0.017770 7.424520 0.668240
v -0.442062 6.699177 -0.458840
v -0.026913 7.333631 -0.570606
v -0.475709 7.730286 -0.564642
v 0.257578 6.924486 0.543305
v -0.033845 6.552279 0.356229
v -0.636175 7.286343 0.743096
v -0.665684 6.749651 0.459536
v 0.346644 7.082168 -0.317107
v 0.383274 7.449438 0.167019
v -0.905418 7.583100 -0.026748
v -0.825966 6.646912 -0.159944
v -0.491505 7.830751 0.688275
v 0.098765 7.831792 -0.154164
v -0.704736 7.155246 -0.512601
v 0.519470 6.893909 -0.157944
v -0.500067 7.396430 -0.237888
v -1.500593 6.771041 -0.907591
v 0.713463 6.013270 -0.522803
v 0.470109 7.242620 -1.035971
v -0.006594 7.273658 -1.387663
v -0.663029 7.324917 -1.117510
v -0.496089 6.729329 -1.950669
v 0.641877 6.033723 -1.303763
v 0.020340 6.791370 0.425209
v -1.419833 6.840271 -0.413904
v -1.070664 6.527061 0.292091
v -1.121862 6.451844 -1.780349
v 0.090887 5.998949 -1.679627
v -0.580634 5.381199 -1.435997
v -1.262928 5.639138 -0.695496
v -0.046043 5.423707 -0.361664
v -0.466494 5.661450 0.094327
v -0.632304 5.118931 -0.810932
v -0.028916 5.494741 1.562191
v -0.488748 4.769398 0.435111
v -0.073599 5.403851 0.323345
v -0.522395 5.800506 0.329309
v 0.210892 4.994706 1.437256
v -0.080532 4.622500 1.250180
v -0.682861 5.356563 1.637047
v -0.712370 4.819872 1.353487
v 0.299958 5.152389 0.576844
v 0.336587 5.519659 1.060969
v -0.952104 5.653321 0.867203
v -0.872652 4.717133 0.734007
v -0.538191 5.900972 1.582226
v 0.052079 5.902012 0.739787
v -0.751422 5.225467 0.381350
vt 0.018764 0.733774
vt 0.018764 0.733774
vt 0.018764 0.733774
vt 0.018764 0.733774
vt 0.018764 0.733774
vt 0.018764 0.733774
vt 0.018764 0.733774
vt 0.018764 0.733774
vt 0.018764 0.733774
vt 0.018764 0.733774
vt 0.018764 0.733774
vt 0.018764 0.733774
vt 0.018764 0.733774
vt 0.018764 0.733774
vt 0.018764 0.733774
vt 0.018764 0.733774
vt 0.018764 0.733774
vt 0.018764 0.733774
vt 0.018764 0.733774
vt 0.018764 0.733774
vt 0.197555 0.863691
vt 0.197555 0.863691
vt 0.197555 0.863691
vt 0.197555 0.863691
vt 0.197555 0.863691
vt 0.197555 0.863691
vt 0.197555 0.863691
vt 0.197555 0.863691
vt 0.197555 0.863691
vt 0.197555 0.863691
vt 0.197555 0.863691
vt 0.197555 0.863691
vt 0.197555 0.863691
vt 0.197555 0.863691
vt 0.197555 0.863691
vt 0.197555 0.863691
vt 0.197555 0.863691
vt 0.197555 0.863691
vt 0.197555 0.863691
vt 0.197555 0.863691
vt 0.197555 0.863691
vt 0.197555 0.863691
vt 0.197555 0.863691
vt 0.197555 0.863691
vt 0.197555 0.863691
vt 0.197555 0.863691
vt 0.197555 0.863691
vt 0.197555 0.863691
vt 0.197555 0.863691
vt 0.197555 0.863691
vt 0.197555 0.863691
vt 0.197555 0.863691
vt 0.197555 0.863691
vt 0.197555 0.863691
vt 0.197555 0.863691
vt 0.197555 0.863691
vt 0.197555 0.863691
vt 0.197555 0.863691
vt 0.197555 0.863691
vt 0.197555 0.863691
vt 0.197555 0.863691
vt 0.197555 0.863691
vt 0.197555 0.863691
vt 0.197555 0.863691
vt 0.197555 0.863691
vt 0.197555 0.863691
vt 0.197555 0.863691
vt 0.197555 0.863691
vt 0.197555 0.863691
vt 0.197555 0.863691
vt 0.197555 0.863691
vt 0.197555 0.863691
vt 0.197555 0.863691
vt 0.197555 0.863691
vt 0.197555 0.863691
vt 0.197555 0.863691
vt 0.197555 0.863691
vt 0.197555 0.863691
vt 0.197555 0.863691
vt 0.197555 0.863691
vt 0.197555 0.863691
vt 0.197555 0.863691
vt 0.197555 0.863691
vt 0.197555 0.863691
vt 0.197555 0.863691
vt 0.197555 0.863691
vt 0.197555 0.863691
vt 0.197555 0.863691
vt 0.197555 0.863691
vt 0.197555 0.863691
vt 0.197555 0.863691
vt 0.197555 0.863691
vt 0.197555 0.863691
vt 0.197555 0.863691
vt 0.197555 0.863691
vt 0.197555 0.863691
vt 0.197555 0.863691
vt 0.197555 0.863691
vt 0.197555 0.863691
vt 0.197555 0.863691
vt 0.197555 0.863691
vt 0.197555 0.863691
vt 0.197555 0.863691
vt 0.197555 0.863691
vt 0.197555 0.863691
vt 0.197555 0.863691
vt 0.197555 0.863691
vt 0.197555 0.863691
vt 0.197555 0.863691
vt 0.197555 0.863691
vt 0.197555 0.863691
vt 0.197555 0.863691
vt 0.197555 0.863691
vt 0.197555 0.863691
vt 0.197555 0.863691
vt 0.197555 0.863691
vt 0.197555 0.863691
vt 0.197555 0.863691
vt 0.197555 0.863691
vt 0.197555 0.863691
vt 0.197555 0.863691
vt 0.197555 0.863691
vt 0.197555 0.863691
vt 0.197555 0.863691
vt 0.197555 0.863691
vt 0.197555 0.863691
vt 0.197555 0.863691
vt 0.197555 0.863691
vt 0.197555 0.863691
vt 0.197555 0.863691
vt 0.197555 0.863691
vt 0.197555 0.863691
vt 0.197555 0.863691
vt 0.197555 0.863691
vt 0.197555 0.863691
vt 0.197555 0.863691
vt 0.197555 0.863691
vt 0.197555 0.863691
vt 0.197555 0.863691
vt 0.197555 0.863691
vt 0.197555 0.863691
vt 0.197555 0.863691
vt 0.197555 0.863691
vt 0.197555 0.863691
vt 0.197555 0.863691
vt 0.197555 0.863691
vt 0.197555 0.863691
vt 0.197555 0.863691
vt 0.197555 0.863691
vt 0.197555 0.863691
vt 0.197555 0.863691
vt 0.197555 0.863691
vt 0.197555 0.863691
vt 0.197555 0.863691
vt 0.197555 0.863691
vt 0.197555 0.863691
vt 0.197555 0.863691
vt 0.197555 0.863691
vt 0.197555 0.863691
vt 0.197555 0.863691
vt 0.197555 0.863691
vt 0.197555 0.863691
vt 0.197555 0.863691
vt 0.197555 0.863691
vt 0.197555 0.863691
vt 0.197555 0.863691
vt 0.197555 0.863691
vn 0.6738 0.0936 -0.7330
vn 0.9524 0.0540 0.3000
vn 0.0050 0.0526 0.9986
vn -0.9466 0.0964 0.3077
vn -0.9511 0.0411 0.3061
vn -0.5000 0.0273 -0.8656
vn 0.6110 0.4572 -0.6463
vn -0.0569 0.5706 0.8192
vn -0.8953 0.3466 0.2797
vn 0.7862 0.5354 0.3086
vn -0.3251 0.5755 -0.7504
vn 0.9548 -0.0222 0.2964
vn -0.5475 0.0716 -0.8338
vn 0.5365 0.0030 -0.8439
vn 0.0010 0.0340 0.9994
vn 0.0942 -0.9528 0.2886
vn 0.9840 -0.1163 0.1351
vn 0.7385 0.2304 0.6337
vn -0.3671 -0.3175 0.8743
vn -0.3236 0.6732 0.6649
vn 0.5993 0.7913 -0.1211
vn 0.4716 0.8407 -0.2663
vn 0.4020 0.7138 -0.5735
vn -0.5652 0.4808 -0.6703
vn -0.0587 0.9816 0.1817
vn -0.6020 0.7985 -0.0033
vn -0.7942 0.5674 0.2176
vn 0.0138 0.9270 0.3748
vn 0.3909 0.7330 0.5566
vn 0.8846 0.3912 -0.2539
vn 0.7597 0.2121 -0.6147
vn 0.4799 0.4051 -0.7782
vn -0.6191 0.2608 -0.7408
vn -0.9855 0.1617 -0.0512
vn -0.9591 0.2613 0.1088
vn -0.2169 0.5967 0.7726
vn 0.3957 0.6184 0.6790
vn 0.1506 -0.0063 -0.9886
vn 0.0643 -0.0169 -0.9978
vn -0.8512 0.0641 -0.5210
vn -0.5945 -0.4551 0.6629
vn 0.5085 0.6763 0.5329
vn 0.5426 -0.5932 0.5947
vn 0.0618 -0.1362 0.9888
vn 0.9644 -0.1186 0.2363
vn 0.5460 -0.5816 -0.6031
vn 0.7419 -0.4364 -0.5090
vn -0.0781 -0.9540 -0.2896
vn -0.3505 -0.8672 -0.3536
vn -0.4701 -0.8321 -0.2943
vn -0.5430 -0.8177 0.1910
vn -0.5179 -0.8171 0.2531
vn 0.7139 -0.4505 -0.5361
vn 0.0741 -0.9275 0.3665
vn 0.2611 -0.7889 0.5562
vn -0.2165 -0.8897 0.4020
vn -0.6048 0.1089 0.7889
vn -0.9375 0.1872 0.2934
vn 0.7808 0.1011 -0.6165
vn -0.6776 0.7352 -0.0175
vn 0.4613 0.8307 -0.3117
vn 0.5517 0.7814 -0.2916
vn -0.3057 0.7145 -0.6293
vn -0.3083 0.8230 0.4770
vn -0.3530 0.9179 0.1812
vn 0.4180 0.5374 0.7324
vn 0.8151 0.5419 0.2050
vn -0.2931 0.1711 -0.9407
vn -0.9327 0.2037 0.2976
vn -0.8341 0.2066 0.5114
vn -0.6134 -0.1136 0.7816
vn 0.3979 0.3085 0.8640
vn 0.9187 0.3126 0.2415
vn 0.2458 -0.1644 -0.9553
vn -0.5915 -0.3484 -0.7272
vn -0.8767 -0.4208 -0.2329
vn -0.7633 -0.1359 0.6317
vn 0.6380 -0.0545 0.7681
vn 0.9695 -0.0842 -0.2303
vn -0.0594 -0.7879 -0.6129
vn -0.4063 -0.6690 -0.6224
vn -0.8138 -0.5454 -0.2008
vn -0.6130 -0.7061 0.3544
vn 0.7266 -0.6847 0.0567
vn 0.1775 -0.9613 -0.2107
vn 0.1598 -0.6054 0.7797
vn 0.5412 -0.4186 0.7293
vn 0.0120 -0.9938 -0.1105
vn 0.7810 -0.3853 0.4915
vn 0.2946 -0.4610 0.8371
vn -0.0087 -0.6212 -0.7836
vn -0.6152 0.2165 0.7580
vn -0.9863 -0.1636 -0.0226
vn 0.4037 0.0860 -0.9109
vn -0.4082 0.5263 0.7459
vn 0.3117 0.7675 -0.5602
vn -0.0687 0.8274 -0.5574
vn -0.1286 0.9294 -0.3460
vn -0.7876 0.6138 -0.0544
vn -0.0892 0.6030 0.7928
vn 0.4394 0.8960 0.0643
vn 0.7053 0.5594 0.4355
vn 0.5478 -0.1191 -0.8281
vn 0.0461 -0.1232 -0.9913
vn -0.4931 0.4515 -0.7436
vn -0.9323 0.2971 -0.2063
vn 0.8412 0.5355 -0.0751
vn 0.3440 0.0984 -0.9338
vn -0.9570 -0.2839 -0.0595
vn -0.9054 -0.2043 0.3722
vn 0.5873 0.0678 0.8066
vn 0.6001 -0.0782 0.7961
vn 0.7693 0.6305 0.1033
vn 0.9614 -0.2529 0.1080
vn 0.7745 -0.4263 -0.4673
vn -0.1100 -0.4268 -0.8976
vn -0.1719 -0.4436 -0.8796
vn -0.3262 -0.8931 -0.3098
vn -0.8035 -0.5953 0.0006
vn -0.6207 -0.7223 0.3050
vn -0.6056 -0.7701 0.2007
vn 0.5335 -0.7282 -0.4302
vn 0.0093 -0.9816 0.1907
vn 0.1932 -0.7505 0.6320
vn 0.3086 -0.8620 0.4022
vn -0.5445 -0.8358 0.0706
vn -0.9334 0.3062 0.1870
vn -0.2017 -0.5880 -0.7833
vn -0.0661 0.9849 0.1603
vn 0.0095 0.9756 0.2194
vn 0.0785 0.9238 0.3747
vn 0.9369 0.2170 0.2740
vn 0.3668 0.7964 -0.4808
vn 0.7418 0.3729 -0.5574
vn 0.7249 0.1937 -0.6611
vn -0.2460 0.7247 -0.6437
vn 0.0673 0.7736 0.6301
vn 0.9184 0.0141 0.3953
vn 0.8843 -0.3612 -0.2957
vn 0.8374 -0.2876 -0.4647
vn 0.0951 0.2636 -0.9599
vn -0.3739 0.5309 -0.7605
vn 0.2897 0.2205 0.9314
vn 0.3588 0.1686 0.9180
vn 0.9320 -0.3043 0.1970
vn 0.0132 -0.7892 -0.6140
vn -0.3961 0.8106 -0.4313
vn -0.7866 -0.4530 -0.4196
vn -0.9307 0.3092 0.1955
vn -0.4935 0.0421 0.8687
vn -0.5321 0.0972 0.8411
vn -0.3756 -0.7346 0.5650
vn 0.0706 -0.8596 0.5061
vn 0.1568 -0.9002 0.4062
vn 0.0185 -0.9983 -0.0545
vn -0.0276 -0.9943 -0.1030
vn -0.8359 -0.4922 -0.2430
vn 0.0332 -0.1397 -0.9896
vn 0.7810 -0.5626 -0.2711
vn -0.0115 0.6114 -0.7913
vn -0.9863 -0.0130 -0.1646
vn 0.4037 0.9081 -0.1111
vn -0.4091 -0.6149 0.6742
vn 0.3117 0.7115 0.6297
vn -0.0687 0.7216 0.6889
vn -0.1286 0.5370 0.8337
vn -0.7876 0.1846 0.5879
vn -0.1171 -0.6723 0.7309
vn 0.4394 0.1291 0.8890
vn 0.7053 -0.3056 0.6397
vn 0.5478 0.7833 -0.2937
vn 0.0461 0.9419 -0.3326
vn -0.4931 0.8230 0.2818
vn -0.9323 0.2651 0.2460
vn 0.8412 0.1881 0.5070
vn 0.3440 0.9332 -0.1038
vn -0.9206 0.0059 -0.3905
vn -0.8696 -0.4818 -0.1079
vn 0.5528 -0.8051 0.2151
vn 0.5681 -0.8112 0.1386
vn 0.7693 0.0341 0.6380
vn 0.9614 -0.1597 -0.2239
vn 0.7745 0.3652 -0.5165
vn -0.1100 0.7854 -0.6091
vn -0.2979 0.7095 -0.6387
vn -0.6137 -0.4047 -0.6780
vn -0.6274 -0.5378 -0.5631
vn 0.5335 0.2643 -0.8034
vn -0.0319 -0.4362 -0.8993
vn 0.1845 -0.7900 -0.5847
vn 0.3086 -0.5774 -0.7559
vn 0.0083 -0.4675 0.8840
vn 0.7810 0.2294 0.5809
vn 0.2144 -0.9710 0.1056
vn -0.9506 -0.1213 0.2857
vn -0.4091 0.9091 -0.0781
vn 0.3363 -0.3724 -0.8650
vn -0.0687 -0.0627 -0.9957
vn -0.0468 -0.1435 -0.9885
vn -0.7876 0.2633 -0.5571
vn -0.1171 0.9898 -0.0808
vn 0.4394 0.5083 -0.7406
vn -0.5306 -0.3941 -0.7504
vn -0.9323 -0.0278 -0.3606
vn 0.8412 0.2058 -0.5001
vn 0.4586 -0.8057 -0.3749
vn -0.9610 -0.0861 0.2629
vn -0.8706 0.2726 0.4096
vn 0.5528 0.7374 0.3882
vn 0.5681 0.6900 0.4485
vn 0.6897 0.5508 -0.4700
vn 0.9802 -0.1865 0.0673
vn 0.7941 -0.6071 -0.0291
vn -0.3012 -0.9533 -0.0210
vn 0.0047 -0.4520 0.8920
vn 0.0980 0.0739 0.9924
vn 0.1479 -0.1724 0.9739
vn 0.0789 0.9923 -0.0953
vn 0.9785 0.2047 0.0263
vn -0.2407 0.6155 0.7505
vn 0.6013 -0.7954 -0.0759
vn 0.5403 -0.8293 -0.1425
vn 0.4738 -0.8254 -0.3071
vn -0.6343 -0.6928 -0.3431
vn 0.0607 -0.8610 0.5049
vn -0.4886 -0.7060 0.5126
vn -0.5828 -0.5446 0.6031
vn 0.5151 -0.4672 0.7186
vn 0.4337 -0.6968 -0.5713
vn -0.7126 -0.5139 -0.4776
vn -0.9686 -0.1692 0.1822
vn -0.9105 -0.2034 0.3601
vn -0.0550 -0.2587 0.9644
vn 0.5044 -0.2333 0.8314
vn -0.0115 -0.3560 -0.9344
vn -0.0986 -0.3495 -0.9317
vn -0.9182 -0.2503 -0.3069
vn -0.5074 0.6662 0.5465
vn 0.7124 -0.4617 0.5285
vn 0.3647 0.8124 0.4550
vn 0.9836 0.1588 -0.0860
vn 0.5340 0.2545 -0.8063
vn 0.6209 0.2198 -0.7524
vn -0.1841 0.7818 -0.5958
vn -0.4572 0.6776 -0.5760
vn -0.5632 0.6667 -0.4882
vn -0.5559 0.8309 -0.0256
vn -0.5210 0.8531 0.0272
vn 0.5881 0.2230 -0.7774
vn 0.0732 0.9973 -0.0113
vn 0.3988 0.8598 0.3190
usemtl None
s off
f 1/1/1 2/2/1 4/3/1 3/4/1
f 3/4/2 4/3/2 6/5/2 5/6/2
f 5/6/3 6/5/3 8/7/3 7/8/3
f 10/9/4 8/7/4 19/10/4 20/11/4
f 7/8/5 8/7/5 10/9/5 9/12/5
f 9/12/6 10/9/6 2/2/6 1/1/6
f 1/1/7 3/4/7 12/13/7 11/14/7
f 5/6/8 7/8/8 14/15/8 13/16/8
f 7/8/9 9/12/9 15/17/9 14/15/9
f 3/4/10 5/6/10 13/16/10 12/13/10
f 9/12/11 1/1/11 11/14/11 15/17/11
f 6/5/12 4/3/12 16/18/12 18/19/12
f 2/2/13 10/9/13 20/11/13 17/20/13
f 4/3/14 2/2/14 17/20/14 16/18/14
f 8/7/15 6/5/15 18/19/15 19/10/15
f 27/21/16 25/22/16 22/23/16
f 21/24/17 25/22/17 24/25/17
f 21/24/18 24/25/18 31/26/18
f 22/23/19 30/27/19 33/28/19
f 33/28/20 39/29/20 41/30/20
f 24/25/21 38/31/21 40/32/21
f 40/32/22 38/31/22 42/33/22
f 38/31/23 36/34/23 42/33/23
f 36/34/24 37/35/24 42/33/24
f 42/33/25 41/30/25 40/32/25
f 42/33/26 37/35/26 41/30/26
f 37/35/27 33/28/27 41/30/27
f 41/30/28 39/29/28 40/32/28
f 39/29/29 24/25/29 40/32/29
f 29/36/30 38/31/30 24/25/30
f 29/36/31 35/37/31 38/31/31
f 35/37/32 36/34/32 38/31/32
f 34/38/33 37/35/33 36/34/33
f 23/39/34 32/40/34 37/35/34
f 32/40/35 33/28/35 37/35/35
f 33/28/36 30/27/36 39/29/36
f 31/26/37 24/25/37 39/29/37
f 35/37/38 28/41/38 36/34/38
f 28/41/39 34/38/39 36/34/39
f 34/38/40 23/39/40 37/35/40
f 32/40/41 22/23/41 33/28/41
f 30/27/42 31/26/42 39/29/42
f 30/27/43 22/23/43 31/26/43
f 22/23/44 21/24/44 31/26/44
f 24/25/45 25/22/45 29/36/45
f 25/22/46 35/37/46 29/36/46
f 26/42/47 28/41/47 35/37/47
f 26/42/48 27/21/48 28/41/48
f 27/21/49 34/38/49 28/41/49
f 27/21/50 23/39/50 34/38/50
f 27/21/51 32/40/51 23/39/51
f 27/21/52 22/23/52 32/40/52
f 25/22/53 26/42/53 35/37/53
f 25/22/54 27/21/54 26/42/54
f 25/22/55 21/24/55 22/23/55
f 48/43/56 45/44/56 43/45/56
f 43/45/57 52/46/57 54/47/57
f 47/48/58 54/47/58 56/49/58
f 46/50/59 60/51/59 51/52/59
f 56/49/60 59/53/60 44/54/60
f 58/55/61 60/51/61 44/54/61
f 58/55/62 51/52/62 60/51/62
f 60/51/63 56/49/63 44/54/63
f 59/53/64 58/55/64 44/54/64
f 59/53/65 57/56/65 58/55/65
f 57/56/66 53/57/66 58/55/66
f 53/57/67 51/52/67 58/55/67
f 55/58/68 56/49/68 60/51/68
f 56/49/69 54/47/69 59/53/69
f 54/47/70 57/56/70 59/53/70
f 54/47/71 52/46/71 57/56/71
f 52/46/72 53/57/72 57/56/72
f 50/59/73 51/52/73 53/57/73
f 60/51/74 46/50/74 55/58/74
f 55/58/75 49/60/75 56/49/75
f 49/60/76 47/48/76 56/49/76
f 47/48/77 43/45/77 54/47/77
f 52/46/78 50/59/78 53/57/78
f 50/59/79 46/50/79 51/52/79
f 48/43/80 55/58/80 46/50/80
f 48/43/81 49/60/81 55/58/81
f 48/43/82 47/48/82 49/60/82
f 48/43/83 43/45/83 47/48/83
f 50/59/84 45/44/84 46/50/84
f 45/44/85 48/43/85 46/50/85
f 43/45/86 45/44/86 52/46/86
f 45/44/87 50/59/87 52/46/87
f 70/61/88 68/62/88 67/63/88
f 61/64/89 68/62/89 75/65/89
f 62/66/90 61/64/90 78/67/90
f 63/68/91 72/69/91 77/70/91
f 62/66/92 78/67/92 76/71/92
f 71/72/93 76/71/93 77/70/93
f 73/73/94 64/74/94 74/75/94
f 76/71/95 78/67/95 66/76/95
f 64/74/96 79/77/96 65/78/96
f 65/78/97 81/79/97 66/76/97
f 65/78/98 79/77/98 81/79/98
f 81/79/99 76/71/99 66/76/99
f 66/76/100 78/67/100 80/80/100
f 80/80/101 65/78/101 66/76/101
f 74/75/102 64/74/102 65/78/102
f 63/68/103 79/77/103 64/74/103
f 63/68/104 77/70/104 79/77/104
f 77/70/105 81/79/105 79/77/105
f 77/70/106 76/71/106 81/79/106
f 75/65/107 65/78/107 80/80/107
f 64/74/108 73/73/108 63/68/108
f 72/69/109 71/72/109 77/70/109
f 71/72/110 62/66/110 76/71/110
f 78/67/111 75/65/111 80/80/111
f 78/67/112 61/64/112 75/65/112
f 75/65/113 74/75/113 65/78/113
f 75/65/114 68/62/114 74/75/114
f 68/62/115 73/73/115 74/75/115
f 69/81/116 63/68/116 73/73/116
f 69/81/117 72/69/117 63/68/117
f 69/81/118 70/61/118 72/69/118
f 70/61/119 71/72/119 72/69/119
f 70/61/120 67/63/120 71/72/120
f 67/63/121 62/66/121 71/72/121
f 68/62/122 69/81/122 73/73/122
f 68/62/123 70/61/123 69/81/123
f 67/63/124 61/64/124 62/66/124
f 67/63/125 68/62/125 61/64/125
f 87/82/126 86/83/126 83/84/126
f 82/85/127 86/83/127 85/86/127
f 83/84/128 90/87/128 92/88/128
f 85/86/129 89/89/129 97/90/129
f 97/90/130 89/89/130 99/91/130
f 89/89/131 95/92/131 99/91/131
f 95/92/132 96/93/132 99/91/132
f 99/91/133 98/94/133 97/90/133
f 99/91/134 96/93/134 98/94/134
f 96/93/135 92/88/135 98/94/135
f 98/94/136 85/86/136 97/90/136
f 94/95/137 95/92/137 89/89/137
f 93/96/138 96/93/138 95/92/138
f 84/97/139 91/98/139 96/93/139
f 91/98/140 92/88/140 96/93/140
f 92/88/141 90/87/141 98/94/141
f 82/85/142 85/86/142 98/94/142
f 94/95/143 88/99/143 95/92/143
f 88/99/144 93/96/144 95/92/144
f 93/96/145 84/97/145 96/93/145
f 91/98/146 83/84/146 92/88/146
f 90/87/147 82/85/147 98/94/147
f 90/87/148 83/84/148 82/85/148
f 85/86/149 86/83/149 89/89/149
f 86/83/150 94/95/150 89/89/150
f 86/83/151 88/99/151 94/95/151
f 86/83/152 87/82/152 88/99/152
f 87/82/153 93/96/153 88/99/153
f 87/82/154 84/97/154 93/96/154
f 87/82/155 91/98/155 84/97/155
f 87/82/156 83/84/156 91/98/156
f 86/83/157 82/85/157 83/84/157
f 109/100/158 106/101/158 105/102/158
f 100/103/159 106/101/159 112/104/159
f 101/105/160 109/100/160 114/106/160
f 108/107/161 113/108/161 114/106/161
f 110/109/162 102/110/162 111/111/162
f 113/108/163 115/112/163 104/113/163
f 102/110/164 116/114/164 103/115/164
f 103/115/165 118/116/165 104/113/165
f 103/115/166 116/114/166 118/116/166
f 118/116/167 113/108/167 104/113/167
f 104/113/168 115/112/168 117/117/168
f 117/117/169 103/115/169 104/113/169
f 111/111/170 102/110/170 103/115/170
f 101/105/171 116/114/171 102/110/171
f 101/105/172 114/106/172 116/114/172
f 114/106/173 118/116/173 116/114/173
f 114/106/174 113/108/174 118/116/174
f 112/104/175 103/115/175 117/117/175
f 102/110/176 110/109/176 101/105/176
f 109/100/177 108/107/177 114/106/177
f 108/107/178 115/112/178 113/108/178
f 115/112/179 112/104/179 117/117/179
f 115/112/180 100/103/180 112/104/180
f 112/104/181 111/111/181 103/115/181
f 112/104/182 106/101/182 111/111/182
f 106/101/183 110/109/183 111/111/183
f 107/118/184 101/105/184 110/109/184
f 107/118/185 109/100/185 101/105/185
f 109/100/186 105/102/186 108/107/186
f 105/102/187 115/112/187 108/107/187
f 106/101/188 107/118/188 110/109/188
f 106/101/189 109/100/189 107/118/189
f 105/102/190 100/103/190 115/112/190
f 105/102/191 106/101/191 100/103/191
f 126/119/192 123/120/192 125/121/192
f 119/122/193 123/120/193 128/123/193
f 120/124/194 126/119/194 130/125/194
f 125/121/195 129/126/195 130/125/195
f 129/126/196 131/127/196 122/128/196
f 127/129/197 120/124/197 121/130/197
f 121/130/198 133/131/198 122/128/198
f 121/130/199 120/124/199 133/131/199
f 133/131/200 129/126/200 122/128/200
f 122/128/201 131/127/201 132/132/201
f 132/132/202 121/130/202 122/128/202
f 130/125/203 133/131/203 120/124/203
f 130/125/204 129/126/204 133/131/204
f 128/123/205 121/130/205 132/132/205
f 127/129/206 124/133/206 120/124/206
f 126/119/207 125/121/207 130/125/207
f 125/121/208 131/127/208 129/126/208
f 131/127/209 128/123/209 132/132/209
f 131/127/210 119/122/210 128/123/210
f 128/123/211 127/129/211 121/130/211
f 128/123/212 123/120/212 127/129/212
f 123/120/213 124/133/213 127/129/213
f 124/133/214 126/119/214 120/124/214
f 123/120/215 126/119/215 124/133/215
f 125/121/216 119/122/216 131/127/216
f 125/121/217 123/120/217 119/122/217
f 140/134/218 135/135/218 138/136/218
f 134/137/219 137/138/219 138/136/219
f 135/135/220 145/139/220 143/140/220
f 137/138/221 150/141/221 142/142/221
f 150/141/222 152/143/222 142/142/222
f 142/142/223 152/143/223 148/144/223
f 148/144/224 152/143/224 149/145/224
f 152/143/225 150/141/225 151/146/225
f 152/143/226 151/146/226 149/145/226
f 149/145/227 151/146/227 145/139/227
f 151/146/228 150/141/228 137/138/228
f 147/147/229 142/142/229 148/144/229
f 146/148/230 148/144/230 149/145/230
f 136/149/231 149/145/231 144/150/231
f 144/150/232 149/145/232 145/139/232
f 145/139/233 151/146/233 143/140/233
f 134/137/234 151/146/234 137/138/234
f 147/147/235 148/144/235 141/151/235
f 141/151/236 148/144/236 146/148/236
f 146/148/237 149/145/237 136/149/237
f 144/150/238 145/139/238 135/135/238
f 143/140/239 151/146/239 134/137/239
f 143/140/240 134/137/240 135/135/240
f 137/138/241 142/142/241 138/136/241
f 138/136/242 142/142/242 147/147/242
f 139/152/243 147/147/243 141/151/243
f 139/152/244 141/151/244 140/134/244
f 140/134/245 141/151/245 146/148/245
f 140/134/246 146/148/246 136/149/246
f 140/134/247 136/149/247 144/150/247
f 140/134/248 144/150/248 135/135/248
f 138/136/249 147/147/249 139/152/249
f 138/136/250 139/152/250 140/134/250
f 138/136/251 135/135/251 134/137/251
f 160/153/192 157/154/192 159/155/192
f 153/156/193 157/154/193 162/157/193
f 154/158/194 160/153/194 164/159/194
f 159/155/195 163/160/195 164/159/195
f 163/160/196 165/161/196 156/162/196
f 161/163/197 154/158/197 155/164/197
f 155/164/198 167/165/198 156/162/198
f 155/164/199 154/158/199 167/165/199
f 167/165/200 163/160/200 156/162/200
f 156/162/201 165/161/201 166/166/201
f 166/166/202 155/164/202 156/162/202
f 164/159/203 167/165/203 154/158/203
f 164/159/204 163/160/204 167/165/204
f 162/157/205 155/164/205 166/166/205
f 161/163/206 158/167/206 154/158/206
f 160/153/207 159/155/207 164/159/207
f 159/155/208 165/161/208 163/160/208
f 165/161/209 162/157/209 166/166/209
f 165/161/210 153/156/210 162/157/210
f 162/157/211 161/163/211 155/164/211
f 162/157/212 157/154/212 161/163/212
f 157/154/213 158/167/213 161/163/213
f 158/167/214 160/153/214 154/158/214
f 157/154/215 160/153/215 158/167/215
f 159/155/216 153/156/216 165/161/216
f 159/155/217 157/154/217 153/156/217
