# Blender v2.90.1 OBJ File: 'drzewo1.blend'
# www.blender.org
mtllib drzewo_5.mtl
o drzewo_5_Icosphere.025
v 2.154598 4.731960 1.517717
v 4.028907 5.986505 0.973063
v 3.808643 4.654955 0.907712
v 2.640522 4.399975 0.468455
v 1.591337 5.038723 -0.295331
v 2.572644 4.730377 -0.275855
v 3.931673 5.698180 0.048823
v 3.296746 5.444731 1.806163
v 1.139287 5.704088 1.612697
v 0.725670 5.038182 0.724596
v 1.131834 6.159652 0.350129
v 2.316059 6.163974 -0.345086
v 2.297834 6.719824 0.400770
v 2.081837 6.451697 1.213931
v -1.284802 13.220354 0.308999
v -0.636130 6.591296 1.309189
v -2.878983 8.354490 0.922204
v -1.466424 6.542990 0.035065
v -2.500306 7.117154 0.051353
v 0.622584 7.575133 -0.884594
v 0.842850 10.900845 -0.122338
v -1.118655 9.145176 2.727952
v 0.803564 10.129696 1.553528
v -2.504241 9.419531 1.471605
v -1.445549 8.539728 -1.554357
v -3.123945 10.646854 -0.861163
v -1.603654 11.874741 2.418327
v -0.382012 12.921331 1.225625
v -2.232244 11.933250 1.195059
v -0.315588 11.372618 -1.568092
v -0.547663 9.171879 -2.261191
v -0.998314 8.898680 -0.111487
v -0.799368 11.004784 -1.236676
v -0.348299 8.305990 -0.696639
v 0.225401 8.308470 -1.384411
v -0.188048 8.262737 -2.027338
v -1.016952 8.347237 -1.453295
v 0.085291 10.401720 -1.899420
v 0.158604 10.286148 -0.745371
v -1.460554 9.945185 -1.022114
v -1.359907 9.074100 -2.249217
v -0.893821 10.206490 -2.347588
v -1.273492 8.508806 1.375870
v -1.772144 8.184650 3.751874
v -1.548452 10.696486 2.504939
v -1.053487 7.470291 3.097212
v -0.424459 7.474613 2.350725
v -0.879530 7.418051 1.637493
v -1.787427 7.525356 2.266002
v -0.054706 8.935431 1.895799
v -0.495854 9.846743 3.052701
v -2.282121 9.433369 2.745280
v -2.171832 8.386744 1.390622
v -1.655628 9.747538 1.283159
v -0.772861 10.154631 1.809352
v 3.052225 5.654809 0.159845
v 3.439387 4.318586 -0.392838
v 2.679347 4.352918 -0.271819
v 3.837143 4.776824 -0.154517
v 2.770525 4.555241 0.771241
v 2.428730 5.152647 0.169378
v 2.626380 5.064736 -0.763138
v 3.319781 5.445924 -0.376811
v -2.647273 11.646170 1.531970
v -2.464515 13.608622 0.886059
v -1.423697 11.583862 0.711167
v -1.835621 11.555161 0.085312
v -2.723599 11.584454 0.414175
v -0.955405 12.231848 0.593320
v -2.355853 12.162518 1.953626
v -3.106343 12.805805 1.087976
v -2.831009 12.439564 -0.276072
v -1.635243 13.164774 1.332447
v -2.548351 12.996914 -0.230259
v -1.745524 13.253700 0.253833
v -2.557729 5.818594 1.660056
v -2.369701 7.837638 0.995518
v -1.298867 5.754490 0.815583
v -1.722671 5.724963 0.171680
v -2.636256 5.755099 0.510026
v -0.817071 6.421162 0.694337
v -2.257905 6.349832 2.093871
v -3.030037 7.011672 1.203257
v -2.746763 6.634870 -0.200127
v -1.516513 7.380992 1.454779
v -2.455954 7.208291 -0.152992
v -1.629975 7.472483 0.345060
v 0.703845 -0.034973 0.249508
v -0.765456 -0.030278 0.250543
v -0.756548 -0.023010 1.731429
v 0.756776 -0.009956 1.741212
v 0.518785 0.822058 1.504004
v -0.384193 2.085939 0.596670
v -0.362657 2.634243 1.289375
v 1.717916 4.019779 0.770855
v 0.111459 3.785203 1.172436
v 0.459227 3.640178 0.835586
v -0.580964 3.584623 0.807573
v 0.410779 2.340966 1.354726
v 0.540295 2.180979 0.975265
v 0.799729 3.233491 0.671634
v 0.937989 3.147445 1.099870
v -0.543331 1.979306 0.975632
v -0.027829 2.786151 1.414351
v -0.105438 3.746363 0.630263
v 0.997056 -0.031688 0.980353
v -0.033841 -0.009956 -0.072031
v -0.000380 0.893125 0.266694
v -1.038262 -0.029854 0.961580
v -0.025341 -0.035888 1.981503
v 0.403255 2.202998 0.589909
v -1.043501 5.804739 1.222202
v -0.679353 5.927474 1.110579
v 0.504355 3.453319 1.297906
v 1.771181 3.993905 1.143747
v 1.428417 4.158082 1.087401
v 2.276132 5.174920 1.024208
v 1.455644 4.127781 0.816296
v 2.156703 5.232702 0.913406
v -0.815401 5.951772 0.720441
v -1.166980 5.851652 0.861040
v 2.167146 5.263934 1.059135
v -0.998893 7.046281 1.150853
v -0.844484 7.123665 0.796924
v -0.725414 7.133870 1.075913
v -1.105015 7.192090 0.894190
vt 0.141069 0.802171
vt 0.141069 0.802171
vt 0.141069 0.802171
vt 0.141069 0.802171
vt 0.141069 0.802171
vt 0.141069 0.802171
vt 0.141069 0.802171
vt 0.141069 0.802171
vt 0.141069 0.802171
vt 0.141069 0.802171
vt 0.141069 0.802171
vt 0.141069 0.802171
vt 0.141069 0.802171
vt 0.141069 0.802171
vt 0.962970 0.809553
vt 0.962970 0.809553
vt 0.962970 0.809553
vt 0.962970 0.809553
vt 0.962970 0.809553
vt 0.962970 0.809553
vt 0.962970 0.809553
vt 0.962970 0.809553
vt 0.962970 0.809553
vt 0.962970 0.809553
vt 0.962970 0.809553
vt 0.962970 0.809553
vt 0.962970 0.809553
vt 0.962970 0.809553
vt 0.962970 0.809553
vt 0.962970 0.809553
vt 0.136147 0.804632
vt 0.136147 0.804632
vt 0.136147 0.804632
vt 0.136147 0.804632
vt 0.136147 0.804632
vt 0.136147 0.804632
vt 0.136147 0.804632
vt 0.136147 0.804632
vt 0.136147 0.804632
vt 0.136147 0.804632
vt 0.136147 0.804632
vt 0.136147 0.804632
vt 0.136147 0.804632
vt 0.136147 0.804632
vt 0.136147 0.804632
vt 0.136147 0.804632
vt 0.136147 0.804632
vt 0.136147 0.804632
vt 0.136147 0.804632
vt 0.136147 0.804632
vt 0.136147 0.804632
vt 0.136147 0.804632
vt 0.136147 0.804632
vt 0.136147 0.804632
vt 0.136147 0.804632
vt 0.962970 0.809553
vt 0.962970 0.809553
vt 0.962970 0.809553
vt 0.962970 0.809553
vt 0.962970 0.809553
vt 0.962970 0.809553
vt 0.962970 0.809553
vt 0.962970 0.809553
vt 0.962970 0.809553
vt 0.962970 0.809553
vt 0.962970 0.809553
vt 0.962970 0.809553
vt 0.962970 0.809553
vt 0.962970 0.809553
vt 0.962970 0.809553
vt 0.962970 0.809553
vt 0.962970 0.809553
vt 0.962970 0.809553
vt 0.962970 0.809553
vt 0.962970 0.809553
vt 0.962970 0.809553
vt 0.962970 0.809553
vt 0.962970 0.809553
vt 0.962970 0.809553
vt 0.962970 0.809553
vt 0.962970 0.809553
vt 0.962970 0.809553
vt 0.962970 0.809553
vt 0.962970 0.809553
vt 0.962970 0.809553
vt 0.962970 0.809553
vt 0.962970 0.809553
vt 0.548968 0.869117
vt 0.548968 0.869117
vt 0.548968 0.869117
vt 0.548968 0.869117
vt 0.548968 0.869117
vt 0.548968 0.869117
vt 0.548968 0.869117
vt 0.548968 0.869117
vt 0.548968 0.869117
vt 0.548968 0.869117
vt 0.548968 0.869117
vt 0.548968 0.869117
vt 0.548968 0.869117
vt 0.548968 0.869117
vt 0.548968 0.869117
vt 0.548968 0.869117
vt 0.548968 0.869117
vt 0.548968 0.869117
vt 0.548968 0.869117
vt 0.548968 0.869117
vt 0.548968 0.869117
vt 0.548968 0.869117
vt 0.548968 0.869117
vt 0.548968 0.869117
vt 0.548968 0.869117
vt 0.548968 0.869117
vt 0.548968 0.869117
vt 0.548968 0.869117
vt 0.548968 0.869117
vt 0.548968 0.869117
vt 0.548968 0.869117
vt 0.548968 0.869117
vt 0.548968 0.869117
vt 0.548968 0.869117
vt 0.548968 0.869117
vt 0.548968 0.869117
vt 0.548968 0.869117
vt 0.548968 0.869117
vt 0.548968 0.869117
vn 0.0794 -0.9392 0.3340
vn 0.7907 -0.1598 0.5910
vn -0.1126 -0.2124 0.9707
vn 0.4557 0.8350 -0.3084
vn 0.3525 0.7545 -0.5536
vn -0.3362 0.7512 -0.5680
vn -0.4325 0.8842 0.1767
vn -0.5147 0.8055 0.2937
vn 0.2588 0.8948 0.3638
vn -0.4872 0.2772 -0.8281
vn -0.9146 0.3787 0.1420
vn -0.0193 0.4894 0.8718
vn 0.2497 0.6967 0.6725
vn 0.1887 -0.1643 -0.9682
vn 0.0847 0.2080 -0.9745
vn -0.7611 0.0600 -0.6459
vn -0.4880 -0.5739 0.6576
vn 0.9856 -0.1604 -0.0536
vn 0.5959 -0.7124 -0.3706
vn -0.2719 -0.8885 -0.3696
vn -0.3372 -0.8967 -0.2867
vn -0.2923 -0.9424 0.1628
vn 0.3919 -0.6119 -0.6870
vn 0.2323 -0.6610 0.7135
vn 0.8666 -0.3753 0.3289
vn -0.4547 -0.8281 0.3277
vn -0.9308 0.1573 0.3300
vn 0.7910 0.0864 -0.6056
vn -0.8102 0.5859 -0.0152
vn 0.6102 0.6990 -0.3730
vn 0.6863 0.6429 -0.3401
vn -0.3365 0.5784 -0.7431
vn -0.3829 0.6982 0.6049
vn -0.4564 0.8462 0.2750
vn 0.5133 0.3119 0.7995
vn 0.8917 0.4029 0.2063
vn -0.2676 0.1021 -0.9581
vn -0.9372 0.1367 0.3209
vn -0.8772 0.1453 0.4577
vn -0.6752 -0.0364 0.7367
vn 0.4448 0.1786 0.8777
vn 0.2602 -0.1084 -0.9595
vn -0.6572 -0.2954 -0.6934
vn -0.9700 -0.2051 -0.1304
vn -0.6801 -0.1327 0.7210
vn 0.9979 -0.0646 -0.0063
vn -0.0369 -0.6221 -0.7820
vn -0.3362 -0.5844 -0.7386
vn -0.5607 -0.5844 0.5866
vn -0.5074 -0.4898 0.7090
vn 0.3614 -0.9105 -0.2010
vn 0.6040 -0.2968 0.7397
vn -0.0296 -0.9992 -0.0283
vn 0.7560 -0.1780 0.6299
vn -0.9445 -0.2995 0.1352
vn 0.5181 -0.0151 -0.8552
vn -0.4743 0.4493 0.7571
vn 0.1082 0.8029 -0.5862
vn -0.8410 0.4707 -0.2668
vn -0.0916 0.4760 0.8747
vn 0.5850 0.8099 0.0439
vn 0.4056 0.0595 -0.9121
vn -0.0045 -0.0847 -0.9964
vn -0.8876 0.3381 -0.3128
vn 0.5937 -0.1325 0.7937
vn 0.9969 0.0524 -0.0581
vn 0.8411 -0.0755 -0.5355
vn 0.0150 -0.2435 -0.9698
vn -0.4254 -0.7520 -0.5035
vn -0.9450 -0.2976 0.1354
vn -0.4427 -0.8272 0.3461
vn -0.0363 -0.9949 0.0941
vn -0.0350 -0.9988 -0.0353
vn 0.7547 -0.1652 0.6350
vn -0.9508 -0.2777 0.1372
vn 0.4118 -0.0692 -0.9086
vn -0.4786 0.4242 0.7688
vn 0.0015 0.7897 -0.6135
vn -0.8540 0.4446 -0.2704
vn -0.0991 0.4495 0.8878
vn 0.6077 0.7919 0.0607
vn 0.3471 0.1387 -0.9275
vn 0.4816 0.0833 -0.8724
vn -0.0060 -0.0765 -0.9971
vn -0.8951 0.3146 -0.3159
vn 0.5972 -0.1253 0.7923
vn 0.8618 0.5028 -0.0675
vn 0.9020 -0.0973 0.4206
vn 0.8011 -0.3532 -0.4831
vn 0.0150 -0.2281 -0.9735
vn -0.4463 -0.7280 -0.5204
vn -0.9488 -0.2850 0.1362
vn -0.4703 -0.8049 0.3620
vn -0.0436 -0.9933 0.1066
vn -0.0138 -0.9814 0.1916
vn -0.8070 -0.5790 -0.1165
vn 0.4599 0.0615 -0.8858
vn -0.4084 0.5213 0.7493
vn -0.2253 0.8647 -0.4489
vn -0.6162 0.7612 -0.2024
vn 0.4599 0.0613 -0.8859
vn 0.5998 0.2660 0.7547
vn 0.7621 0.6336 0.1333
vn -0.9959 -0.0124 0.0895
vn -0.1543 -0.5690 -0.8077
vn 0.5417 -0.7068 0.4549
vn -0.0133 -0.9983 0.0560
vn -0.7788 -0.0696 0.6234
vn -0.9161 -0.3930 -0.0794
vn 0.4282 0.1158 -0.8962
vn -0.4154 0.5198 0.7465
vn 0.0097 0.8766 -0.4811
vn -0.7859 0.5652 -0.2507
vn -0.1198 0.5838 0.8030
vn 0.4608 0.8871 0.0260
vn 0.4228 0.0259 -0.9059
vn 0.5538 -0.2147 -0.8045
vn -0.8433 0.4516 -0.2915
vn 0.6971 -0.0582 0.7147
vn 0.7957 0.6048 -0.0315
vn -0.9952 -0.0672 0.0717
vn 0.6930 -0.5790 -0.4296
vn -0.2897 -0.6229 -0.7267
vn -0.0128 -0.9984 0.0542
vn 0.3706 -0.7039 0.6059
vn 0.6599 -0.3567 0.6612
vn 0.2060 0.1741 -0.9629
vn -0.4618 0.0954 -0.8819
vn 0.9537 0.0958 0.2851
vn -0.3138 0.2009 0.9280
vn 0.3709 0.5972 -0.7112
vn 0.8883 -0.3153 -0.3339
vn -0.3877 0.3363 -0.8582
vn 0.9008 0.3360 0.2749
vn 0.9114 0.1873 -0.3665
vn -0.3724 0.0812 -0.9245
vn 0.0741 0.0505 -0.9960
vn 0.2313 -0.2761 0.9329
vn -0.0125 0.3012 0.9535
vn -0.4143 0.1790 0.8924
vn 0.3241 0.1313 -0.9369
vn 0.9309 0.1739 -0.3211
vn 0.2667 0.3340 0.9041
vn 0.4217 0.0108 0.9067
vn 0.8089 -0.3896 0.4404
vn 0.3886 0.3109 -0.8674
vn 0.8817 -0.3179 -0.3485
vn -0.8895 0.0269 0.4561
vn -0.2155 0.1953 -0.9568
vn -0.0990 0.2472 0.9639
vn -0.9136 -0.0635 -0.4015
vn 0.4216 0.1581 0.8929
vn 0.8533 0.1773 0.4903
vn 0.1704 0.0360 0.9847
vn 0.2397 0.9568 -0.1644
vn 0.5740 0.7771 0.2581
vn 0.9340 0.0358 -0.3554
vn -0.3639 0.0454 -0.9303
vn -0.9319 0.0438 0.3600
vn 0.2678 0.0418 0.9626
vn -0.5108 0.7786 0.3645
vn 0.2862 -0.0254 0.9578
vn -0.1139 0.1014 0.9883
vn -0.1067 0.1541 -0.9823
vn -0.8299 0.5392 -0.1436
vn -0.9392 0.2042 0.2761
vn -0.9134 0.2237 -0.3402
vn 0.6701 -0.6962 -0.2575
vn -0.1237 0.2462 -0.9613
vn -0.4373 0.8879 -0.1432
vn 0.8663 -0.3380 -0.3678
vn 0.8879 0.3087 -0.3410
vn -0.8308 0.5535 -0.0591
vn -0.3391 -0.0681 -0.9383
vn -0.9662 -0.2248 0.1258
vn 0.3120 0.1554 0.9373
vn -0.3290 -0.0507 0.9430
usemtl None
s off
f 4/1/1 3/2/1 1/3/1
f 8/4/2 3/2/2 2/5/2
f 1/3/3 8/4/3 9/6/3
f 2/5/4 7/7/4 13/8/4
f 7/7/5 12/9/5 13/8/5
f 12/9/6 11/10/6 13/8/6
f 13/8/7 11/10/7 14/11/7
f 11/10/8 9/6/8 14/11/8
f 14/11/9 2/5/9 13/8/9
f 5/12/10 11/10/10 12/9/10
f 10/13/11 9/6/11 11/10/11
f 9/6/12 8/4/12 14/11/12
f 8/4/13 2/5/13 14/11/13
f 7/7/14 5/12/14 12/9/14
f 7/7/15 6/14/15 5/12/15
f 5/12/16 10/13/16 11/10/16
f 10/13/17 1/3/17 9/6/17
f 2/5/18 3/2/18 7/7/18
f 4/1/19 6/14/19 7/7/19
f 4/1/20 5/12/20 6/14/20
f 4/1/21 10/13/21 5/12/21
f 4/1/22 1/3/22 10/13/22
f 3/2/23 4/1/23 7/7/23
f 3/2/24 8/4/24 1/3/24
f 23/15/25 16/16/25 20/17/25
f 18/18/26 16/16/26 19/19/26
f 17/20/27 24/21/27 26/22/27
f 20/17/28 30/23/28 21/24/28
f 26/22/29 29/25/29 15/26/29
f 28/27/30 30/23/30 15/26/30
f 28/27/31 21/24/31 30/23/31
f 30/23/32 26/22/32 15/26/32
f 29/25/33 28/27/33 15/26/33
f 29/25/34 27/28/34 28/27/34
f 27/28/35 23/15/35 28/27/35
f 23/15/36 21/24/36 28/27/36
f 25/29/37 26/22/37 30/23/37
f 26/22/38 24/21/38 29/25/38
f 24/21/39 27/28/39 29/25/39
f 24/21/40 22/30/40 27/28/40
f 22/30/41 23/15/41 27/28/41
f 30/23/42 20/17/42 25/29/42
f 25/29/43 19/19/43 26/22/43
f 19/19/44 17/20/44 26/22/44
f 17/20/45 22/30/45 24/21/45
f 23/15/46 20/17/46 21/24/46
f 18/18/47 25/29/47 20/17/47
f 18/18/48 19/19/48 25/29/48
f 19/19/49 16/16/49 17/20/49
f 16/16/50 22/30/50 17/20/50
f 16/16/51 18/18/51 20/17/51
f 16/16/52 23/15/52 22/30/52
f 37/31/53 35/32/53 34/33/53
f 34/33/54 35/32/54 39/34/54
f 32/35/55 40/36/55 41/37/55
f 36/38/56 31/39/56 38/40/56
f 40/36/57 32/35/57 33/41/57
f 38/40/58 42/42/58 33/41/58
f 42/42/59 40/36/59 33/41/59
f 33/41/60 32/35/60 39/34/60
f 39/34/61 38/40/61 33/41/61
f 31/39/62 42/42/62 38/40/62
f 31/39/63 41/37/63 42/42/63
f 41/37/64 40/36/64 42/42/64
f 32/35/65 34/33/65 39/34/65
f 39/34/66 35/32/66 38/40/66
f 35/32/67 36/38/67 38/40/67
f 36/38/68 41/37/68 31/39/68
f 36/38/69 37/31/69 41/37/69
f 37/31/70 32/35/70 41/37/70
f 37/31/71 34/33/71 32/35/71
f 35/32/72 37/31/72 36/38/72
f 49/43/73 47/44/73 46/45/73
f 46/45/74 47/44/74 51/46/74
f 44/47/75 52/48/75 53/49/75
f 48/50/76 43/51/76 50/52/76
f 52/48/77 44/47/77 45/53/77
f 55/54/78 54/55/78 45/53/78
f 54/55/79 52/48/79 45/53/79
f 45/53/80 44/47/80 51/46/80
f 51/46/81 55/54/81 45/53/81
f 50/52/82 43/51/82 55/54/82
f 43/51/83 54/55/83 55/54/83
f 43/51/84 53/49/84 54/55/84
f 53/49/85 52/48/85 54/55/85
f 44/47/86 46/45/86 51/46/86
f 51/46/87 50/52/87 55/54/87
f 51/46/88 47/44/88 50/52/88
f 47/44/89 48/50/89 50/52/89
f 48/50/90 53/49/90 43/51/90
f 48/50/91 49/43/91 53/49/91
f 49/43/92 44/47/92 53/49/92
f 49/43/93 46/45/93 44/47/93
f 47/44/94 49/43/94 48/50/94
f 58/56/95 57/57/95 60/58/95
f 60/58/96 61/59/96 62/60/96
f 57/57/97 62/60/97 59/61/97
f 61/59/98 60/58/98 56/62/98
f 63/63/99 62/60/99 56/62/99
f 62/60/100 61/59/100 56/62/100
f 59/61/101 62/60/101 63/63/101
f 60/58/102 59/61/102 56/62/102
f 59/61/103 63/63/103 56/62/103
f 58/56/104 60/58/104 62/60/104
f 57/57/105 58/56/105 62/60/105
f 57/57/106 59/61/106 60/58/106
f 68/64/107 66/65/107 64/66/107
f 64/66/108 70/67/108 71/68/108
f 64/66/109 71/68/109 72/69/109
f 67/70/110 72/69/110 69/71/110
f 71/68/111 70/67/111 65/72/111
f 75/73/112 74/74/112 65/72/112
f 74/74/113 71/68/113 65/72/113
f 65/72/114 70/67/114 73/75/114
f 73/75/115 75/73/115 65/72/115
f 69/71/116 72/69/116 75/73/116
f 72/69/117 74/74/117 75/73/117
f 72/69/118 71/68/118 74/74/118
f 70/67/119 69/71/119 73/75/119
f 69/71/120 75/73/120 73/75/120
f 68/64/121 64/66/121 72/69/121
f 66/65/122 67/70/122 69/71/122
f 67/70/123 68/64/123 72/69/123
f 66/65/124 68/64/124 67/70/124
f 64/66/125 66/65/125 70/67/125
f 66/65/126 69/71/126 70/67/126
f 80/76/107 78/77/107 76/78/107
f 76/78/108 82/79/108 83/80/108
f 76/78/109 83/80/109 84/81/109
f 79/82/110 84/81/110 81/83/110
f 83/80/111 82/79/111 77/84/111
f 87/85/112 86/86/112 77/84/112
f 86/86/113 83/80/113 77/84/113
f 77/84/114 82/79/114 85/87/114
f 85/87/115 87/85/115 77/84/115
f 81/83/116 84/81/116 87/85/116
f 84/81/117 86/86/117 87/85/117
f 84/81/118 83/80/118 86/86/118
f 82/79/119 81/83/119 85/87/119
f 81/83/120 87/85/120 85/87/120
f 80/76/121 76/78/121 84/81/121
f 78/77/122 79/82/122 81/83/122
f 79/82/123 80/76/123 84/81/123
f 78/77/124 80/76/124 79/82/124
f 76/78/125 78/77/125 82/79/125
f 78/77/126 81/83/126 82/79/126
f 108/88/127 111/89/127 88/90/127
f 93/91/128 105/92/128 108/88/128
f 92/93/129 100/94/129 99/95/129
f 90/96/130 110/97/130 94/98/130
f 97/99/131 101/100/131 105/92/131
f 100/94/132 111/89/132 101/100/132
f 89/101/133 108/88/133 107/102/133
f 106/103/134 92/93/134 91/104/134
f 106/103/135 88/90/135 100/94/135
f 98/105/136 105/92/136 93/91/136
f 105/92/137 101/100/137 111/89/137
f 115/106/138 114/107/138 102/108/138
f 116/109/139 114/107/139 115/106/139
f 94/98/140 110/97/140 104/110/140
f 111/89/141 108/88/141 105/92/141
f 88/90/142 111/89/142 100/94/142
f 110/97/143 91/104/143 92/93/143
f 114/107/144 99/95/144 102/108/144
f 102/108/145 99/95/145 100/94/145
f 88/90/146 107/102/146 108/88/146
f 102/108/147 100/94/147 101/100/147
f 103/111/148 94/98/148 98/105/148
f 89/101/149 93/91/149 108/88/149
f 96/112/150 104/110/150 114/107/150
f 103/111/151 98/105/151 93/91/151
f 92/93/152 99/95/152 104/110/152 110/97/152
f 106/103/153 100/94/153 92/93/153
f 104/110/154 99/95/154 114/107/154
f 97/99/155 105/92/155 96/112/155
f 97/99/156 96/112/156 114/107/156
f 113/113/157 120/114/157 124/115/157 125/116/157
f 120/114/158 121/117/158 126/118/158 124/115/158
f 121/117/159 112/119/159 123/120/159 126/118/159
f 112/119/160 113/113/160 125/116/160 123/120/160
f 114/107/161 116/109/161 97/99/161
f 115/106/162 117/121/162 122/122/162
f 122/122/163 116/109/163 115/106/163
f 118/123/164 119/124/164 95/125/164
f 119/124/165 118/123/165 116/109/165
f 109/126/166 90/96/166 94/98/166 103/111/166
f 103/111/167 93/91/167 89/101/167 109/126/167
f 102/108/168 101/100/168 95/125/168 115/106/168
f 95/125/169 101/100/169 97/99/169 118/123/169
f 97/99/170 116/109/170 118/123/170
f 117/121/171 115/106/171 95/125/171 119/124/171
f 96/112/172 105/92/172 120/114/172 113/113/172
f 116/109/173 122/122/173 119/124/173
f 98/105/174 121/117/174 120/114/174 105/92/174
f 98/105/175 94/98/175 112/119/175 121/117/175
f 104/110/176 96/112/176 113/113/176 112/119/176
f 112/119/177 94/98/177 104/110/177
