# Blender v2.90.1 OBJ File: 'drzewo1.blend'
# www.blender.org
mtllib kamien_2.mtl
o kamien_2_Icosphere.002
v 0.771662 -0.009511 0.114926
v 1.034795 1.198014 0.251029
v 0.448585 1.412077 0.202558
v 1.418388 0.850967 0.420532
v 0.064414 -0.009511 1.127471
v 0.035984 0.184032 1.189490
v -0.323730 0.649734 0.732090
v 0.759041 0.475351 0.881803
v -0.219587 -0.009511 0.733676
v 1.269564 -0.009511 0.438728
v -0.010997 1.120392 0.401095
v -0.041523 -0.009511 -0.189223
v 0.016418 -0.009511 -1.085577
v 0.669536 -0.009511 -1.027064
v 1.232159 -0.009511 -0.655161
v 1.058172 1.078075 -0.501734
v 1.417392 0.887301 -0.217465
v 0.653385 1.195806 -0.718377
v -0.196510 0.821364 -0.606175
v -0.082742 0.659202 -0.974596
v -0.748298 0.305732 -0.427957
v -0.750022 0.163637 0.435567
v -0.785319 0.569458 0.559109
v -0.801579 -0.009511 0.239172
v -1.331022 0.617800 -0.259103
v -1.359021 0.635901 -0.110706
v -1.157621 0.966682 0.125979
v -1.116291 0.216676 0.047254
v -1.166156 0.868745 -0.315635
v -0.849525 -0.009511 -0.268574
v -0.944075 0.831047 0.390691
v -0.685181 0.897066 -0.430151
v -0.224055 1.011004 -0.386548
v -0.185310 0.560611 -0.485355
v -0.307821 -0.009511 -0.421606
v -0.374675 0.262745 0.264193
v -0.481908 -0.009511 0.182242
v -0.308373 0.570826 0.307148
v -0.469945 1.101900 0.069544
v -0.277708 1.078179 -0.079395
v -0.297763 0.293969 -0.818243
v -0.037801 -0.009511 -0.746846
v -0.123854 -0.009511 -0.581605
v -0.024429 -0.009511 -0.900274
v -0.502895 0.050571 -0.805334
v -0.477402 -0.009511 -0.783040
v -0.447016 -0.009511 -0.576733
v -0.256200 -0.009511 -0.865646
v -0.537292 0.110635 -0.680583
v -0.185807 0.219885 -0.961033
v -0.281968 -0.009511 -0.541902
v -0.437564 0.292487 -0.578315
v -0.325466 0.408422 -0.424690
v -0.220206 0.471355 -0.602582
v -0.123754 0.427535 -0.785999
v -0.001592 0.155663 -0.649575
v 0.024286 0.163961 -0.797125
v -0.053552 0.148811 -0.510619
v -0.301941 0.168285 -0.378635
v -0.279373 0.279432 -0.366221
vt 0.667251 0.745248
vt 0.667251 0.745248
vt 0.667251 0.745248
vt 0.667251 0.745248
vt 0.667251 0.745248
vt 0.667251 0.745248
vt 0.667251 0.745248
vt 0.667251 0.745248
vt 0.667251 0.745248
vt 0.667251 0.745248
vt 0.667251 0.745248
vt 0.667251 0.745248
vt 0.667251 0.745248
vt 0.667251 0.745248
vt 0.667251 0.745248
vt 0.667251 0.745248
vt 0.667251 0.745248
vt 0.667251 0.745248
vt 0.667251 0.745248
vt 0.667251 0.745248
vt 0.667251 0.745248
vt 0.667251 0.745248
vt 0.667251 0.745248
vt 0.667251 0.745248
vt 0.667251 0.745248
vt 0.667251 0.745248
vt 0.667251 0.745248
vt 0.667251 0.745248
vt 0.667251 0.745248
vt 0.667251 0.745248
vt 0.667251 0.745248
vt 0.667251 0.745248
vt 0.667251 0.745248
vt 0.667251 0.745248
vt 0.667251 0.745248
vt 0.667251 0.745248
vt 0.667251 0.745248
vt 0.667251 0.745248
vt 0.667251 0.745248
vt 0.667251 0.745248
vt 0.667251 0.745248
vt 0.667251 0.745248
vt 0.667251 0.745248
vt 0.667251 0.745248
vt 0.667251 0.745248
vt 0.667251 0.745248
vt 0.667251 0.745248
vt 0.667251 0.745248
vt 0.667251 0.745248
vt 0.667251 0.745248
vt 0.667251 0.745248
vt 0.667251 0.745248
vt 0.667251 0.745248
vt 0.667251 0.745248
vt 0.667251 0.745248
vt 0.667251 0.745248
vt 0.667251 0.745248
vt 0.667251 0.745248
vt 0.667251 0.745248
vt 0.667251 0.745248
vn 0.0000 -1.0000 -0.0000
vn 0.4789 -0.2615 0.8380
vn 0.4535 -0.2109 0.8660
vn -0.8398 -0.1314 0.5267
vn -0.7755 -0.2931 0.5592
vn 0.6041 -0.0877 0.7921
vn 0.2003 0.5998 0.7747
vn 0.0931 0.6045 0.7911
vn -0.1213 0.6463 0.7534
vn -0.0201 0.5840 0.8115
vn -0.8358 0.5490 -0.0090
vn -0.9814 -0.1553 -0.1132
vn -0.9623 -0.1007 -0.2528
vn -0.9760 -0.1771 -0.1266
vn 0.9853 -0.1706 -0.0113
vn 0.9819 -0.1864 -0.0336
vn 0.1602 0.6137 0.7731
vn 0.6601 0.7500 0.0417
vn 0.3498 0.9263 -0.1397
vn -0.5719 0.8092 -0.1349
vn 0.5401 0.2017 -0.8171
vn 0.6725 0.2078 -0.7103
vn 0.5093 0.2199 -0.8320
vn 0.5362 0.8360 -0.1165
vn 0.3437 0.9290 -0.1373
vn -0.4176 0.8595 -0.2947
vn -0.4071 0.7830 -0.4703
vn 0.1529 0.2471 -0.9568
vn 0.0878 0.1758 -0.9805
vn -0.2904 -0.0247 -0.9566
vn -0.4112 -0.3027 -0.8598
vn -0.7736 -0.5903 -0.2307
vn -0.8454 -0.5255 -0.0954
vn -0.8113 0.5738 -0.1116
vn -0.8374 0.5008 -0.2191
vn -0.2327 0.0212 -0.9723
vn -0.2525 -0.3708 -0.8937
vn -0.6054 -0.7939 0.0572
vn -0.6784 -0.4536 0.5780
vn -0.7538 -0.2007 0.6257
vn -0.7596 -0.0028 0.6503
vn -0.7995 -0.1044 0.5915
vn -0.1218 0.8400 0.5287
vn -0.2051 0.9564 -0.2081
vn -0.0519 0.9737 -0.2220
vn -0.1638 0.9468 -0.2770
vn -0.1661 0.8583 -0.4856
vn -0.7201 -0.2586 0.6439
vn 0.1140 -0.7599 0.6400
vn 0.4559 -0.2227 0.8617
vn 0.1781 0.6068 0.7747
vn -0.1048 0.0075 -0.9945
vn -0.0565 -0.0989 -0.9935
vn 0.9673 -0.1889 0.1693
vn 0.8723 -0.4193 0.2515
vn 0.9616 -0.2282 0.1523
vn 0.4663 -0.4183 0.7795
vn 0.4524 -0.2179 0.8648
vn 0.4104 0.4735 0.7793
vn 0.5752 0.4734 0.6671
vn 0.0385 0.2173 -0.9753
vn 0.9867 0.0565 0.1525
vn 0.9857 0.0494 0.1614
vn -0.6911 0.5581 -0.4593
vn -0.5754 0.4486 -0.6839
vn -0.2932 -0.2890 -0.9113
vn -0.3134 -0.4444 -0.8392
vn -0.8418 -0.5254 0.1240
vn -0.9116 -0.4073 -0.0552
vn -0.6908 0.6031 -0.3988
vn -0.3865 0.6592 -0.6450
vn -0.1388 -0.3436 -0.9288
vn -0.1518 -0.6777 0.7195
vn -0.7828 -0.0522 0.6201
vn -0.7085 0.0654 0.7027
vn -0.7917 0.0394 0.6096
vn -0.8579 0.2058 0.4708
vn 0.6361 0.2545 -0.7284
vn 0.6295 0.3821 -0.6765
vn 0.9457 -0.3146 0.0824
vn 0.7602 -0.5151 0.3959
vn 0.1844 -0.6535 0.7342
vn -0.6173 0.7019 -0.3553
vn -0.4944 0.7501 -0.4392
vn 0.8045 0.5123 0.3006
vn 0.8612 0.4762 0.1778
vn 0.7997 0.5055 0.3240
vn 0.9439 -0.2947 0.1490
vn 0.8747 -0.3735 0.3087
vn 0.3714 -0.5121 0.7745
vn 0.4492 -0.1887 0.8733
vn -0.6389 0.7616 -0.1086
vn 0.6530 0.4997 0.5692
vn 0.6613 0.4927 0.5656
usemtl None
s off
f 9/1/1 1/2/1 5/3/1
f 1/2/1 10/4/1 5/3/1
f 10/4/2 8/5/2 5/3/2
f 8/5/3 6/6/3 5/3/3
f 7/7/4 9/1/4 6/6/4
f 9/1/5 5/3/5 6/6/5
f 9/1/1 12/8/1 1/2/1
f 15/9/1 10/4/1 1/2/1
f 4/10/6 8/5/6 10/4/6
f 4/10/7 2/11/7 8/5/7
f 3/12/8 6/6/8 8/5/8
f 3/12/9 7/7/9 6/6/9
f 3/12/10 11/13/10 7/7/10
f 19/14/11 7/7/11 11/13/11
f 19/14/12 9/1/12 7/7/12
f 20/15/13 13/16/13 19/14/13
f 19/14/14 13/16/14 9/1/14
f 13/16/1 12/8/1 9/1/1
f 10/4/15 17/17/15 4/10/15
f 10/4/16 15/9/16 17/17/16
f 2/11/17 3/12/17 8/5/17
f 4/10/18 17/17/18 2/11/18
f 2/11/19 18/18/19 3/12/19
f 11/13/20 3/12/20 19/14/20
f 14/19/1 1/2/1 12/8/1
f 14/19/1 15/9/1 1/2/1
f 14/19/21 16/20/21 15/9/21
f 16/20/22 17/17/22 15/9/22
f 18/18/23 16/20/23 14/19/23
f 16/20/24 2/11/24 17/17/24
f 16/20/25 18/18/25 2/11/25
f 18/18/26 19/14/26 3/12/26
f 18/18/27 20/15/27 19/14/27
f 12/8/1 13/16/1 14/19/1
f 18/18/28 14/19/28 20/15/28
f 14/19/29 13/16/29 20/15/29
f 29/21/30 21/22/30 25/23/30
f 21/22/31 30/24/31 25/23/31
f 30/24/32 28/25/32 25/23/32
f 28/25/33 26/26/33 25/23/33
f 27/27/34 29/21/34 26/26/34
f 29/21/35 25/23/35 26/26/35
f 29/21/36 32/28/36 21/22/36
f 35/29/37 30/24/37 21/22/37
f 24/30/38 28/25/38 30/24/38
f 24/30/39 22/31/39 28/25/39
f 23/32/40 26/26/40 28/25/40
f 23/32/41 27/27/41 26/26/41
f 23/32/42 31/33/42 27/27/42
f 39/34/43 27/27/43 31/33/43
f 39/34/44 29/21/44 27/27/44
f 40/35/45 33/36/45 39/34/45
f 39/34/46 33/36/46 29/21/46
f 33/36/47 32/28/47 29/21/47
f 30/24/1 37/37/1 24/30/1
f 30/24/1 35/29/1 37/37/1
f 22/31/48 23/32/48 28/25/48
f 24/30/49 37/37/49 22/31/49
f 22/31/50 38/38/50 23/32/50
f 31/33/51 23/32/51 39/34/51
f 34/39/52 21/22/52 32/28/52
f 34/39/53 35/29/53 21/22/53
f 34/39/54 36/40/54 35/29/54
f 36/40/55 37/37/55 35/29/55
f 38/38/56 36/40/56 34/39/56
f 36/40/57 22/31/57 37/37/57
f 36/40/58 38/38/58 22/31/58
f 38/38/59 39/34/59 23/32/59
f 38/38/60 40/35/60 39/34/60
f 32/28/61 33/36/61 34/39/61
f 38/38/62 34/39/62 40/35/62
f 34/39/63 33/36/63 40/35/63
f 49/41/64 41/42/64 45/43/64
f 41/42/65 50/44/65 45/43/65
f 50/44/66 48/45/66 45/43/66
f 48/45/67 46/46/67 45/43/67
f 47/47/68 49/41/68 46/46/68
f 49/41/69 45/43/69 46/46/69
f 49/41/70 52/48/70 41/42/70
f 55/49/71 50/44/71 41/42/71
f 44/50/72 48/45/72 50/44/72
f 44/50/1 42/51/1 48/45/1
f 43/52/1 46/46/1 48/45/1
f 43/52/1 47/47/1 46/46/1
f 43/52/1 51/53/1 47/47/1
f 59/54/73 47/47/73 51/53/73
f 59/54/74 49/41/74 47/47/74
f 60/55/75 53/56/75 59/54/75
f 59/54/76 53/56/76 49/41/76
f 53/56/77 52/48/77 49/41/77
f 50/44/78 57/57/78 44/50/78
f 50/44/79 55/49/79 57/57/79
f 42/51/1 43/52/1 48/45/1
f 44/50/80 57/57/80 42/51/80
f 42/51/81 58/58/81 43/52/81
f 51/53/82 43/52/82 59/54/82
f 54/59/83 41/42/83 52/48/83
f 54/59/84 55/49/84 41/42/84
f 54/59/85 56/60/85 55/49/85
f 56/60/86 57/57/86 55/49/86
f 58/58/87 56/60/87 54/59/87
f 56/60/88 42/51/88 57/57/88
f 56/60/89 58/58/89 42/51/89
f 58/58/90 59/54/90 43/52/90
f 58/58/91 60/55/91 59/54/91
f 52/48/92 53/56/92 54/59/92
f 58/58/93 54/59/93 60/55/93
f 54/59/94 53/56/94 60/55/94
