# Blender v2.90.1 OBJ File: 'drzewo1.blend'
# www.blender.org
mtllib krzak_1.mtl
o krzak_1_Icosphere
v -0.710770 1.068509 2.189907
v -0.308171 1.924632 1.657013
v -1.178916 2.221350 1.757701
v -0.485141 0.714061 1.629892
v -0.128504 1.649408 1.087867
v -1.591249 0.762758 1.534909
v -1.420506 1.638892 2.090697
v -1.551531 1.455709 0.701447
v -0.784313 1.112965 0.693153
v -1.653314 2.059616 1.635248
v -0.734940 2.088819 0.651036
v -2.219580 0.795162 -0.011899
v -0.224515 0.649415 -2.641266
v 0.528965 2.831312 -0.538551
v 0.108398 -0.021704 1.128073
v 1.536253 -0.021704 0.780574
v 1.916206 -0.021704 -1.053813
v -1.012928 -0.021704 -0.304085
v 0.106456 -0.021704 -1.487273
v 2.392729 0.483184 -2.108579
v 3.015443 1.220249 0.548296
v 3.138024 0.759601 -0.653445
v 0.442255 1.025775 2.666920
v -1.360113 0.843989 0.827581
v -0.953041 0.755274 -1.934884
v -2.066041 1.712033 -1.746334
v 1.581504 1.730135 -2.779310
v -0.198047 2.168298 2.254644
v -1.157429 1.898996 -0.198423
v 1.354200 2.391859 1.423708
v 2.402722 2.123676 -0.292110
v -1.386432 2.113467 0.955355
v 2.926584 2.717157 0.113573
v 2.741799 1.550899 -0.010283
v 1.226040 1.903808 -0.036923
v 1.871609 1.559363 0.393325
v 2.815538 2.520800 -0.642732
v 2.560046 2.306916 0.826377
v 1.379630 2.508642 0.605292
v 1.853917 1.834370 -0.902970
v 1.544635 2.967418 -0.694912
v 1.933940 3.320684 -0.302124
v 1.890598 3.086187 0.295758
vt 0.839588 0.807552
vt 0.839588 0.807552
vt 0.839588 0.807552
vt 0.839588 0.807552
vt 0.839588 0.807552
vt 0.839588 0.807552
vt 0.839588 0.807552
vt 0.839588 0.807552
vt 0.839588 0.807552
vt 0.839588 0.807552
vt 0.839588 0.807552
vt 0.960166 0.805092
vt 0.960166 0.805092
vt 0.960166 0.805092
vt 0.960166 0.805092
vt 0.960166 0.805092
vt 0.960166 0.805092
vt 0.960166 0.805092
vt 0.960166 0.805092
vt 0.960166 0.805092
vt 0.960166 0.805092
vt 0.960166 0.805092
vt 0.960166 0.805092
vt 0.960166 0.805092
vt 0.960166 0.805092
vt 0.960166 0.805092
vt 0.960166 0.805092
vt 0.960166 0.805092
vt 0.960166 0.805092
vt 0.960166 0.805092
vt 0.960166 0.805092
vt 0.960166 0.805092
vt 0.839588 0.807552
vt 0.839588 0.807552
vt 0.839588 0.807552
vt 0.839588 0.807552
vt 0.839588 0.807552
vt 0.839588 0.807552
vt 0.839588 0.807552
vt 0.839588 0.807552
vt 0.839588 0.807552
vt 0.839588 0.807552
vt 0.839588 0.807552
vn -0.0071 -0.9208 -0.3899
vn 0.8848 -0.1393 0.4447
vn -0.3825 0.5730 0.7248
vn 0.3242 0.9458 0.0168
vn 0.6502 0.7439 -0.1544
vn -0.2639 0.9395 -0.2184
vn -0.5514 0.6718 -0.4946
vn 0.5524 -0.0638 -0.8311
vn -0.0294 -0.0416 -0.9987
vn -0.9958 -0.0413 -0.0818
vn 0.2459 0.4262 0.8705
vn -0.9142 -0.0746 0.3984
vn -0.4453 -0.4162 0.7928
vn 0.2119 0.4173 0.8837
vn 0.9219 -0.1428 0.3601
vn 0.7117 -0.5351 -0.4552
vn -0.3277 -0.7187 -0.6132
vn -0.0815 -0.8567 0.5094
vn 0.6366 -0.6962 0.3318
vn -0.4292 0.8136 0.3921
vn -0.4535 0.6849 -0.5703
vn 0.8309 0.2827 -0.4793
vn -0.4527 0.8772 0.1598
vn -0.1430 0.8600 -0.4898
vn 0.3710 0.8905 -0.2634
vn -0.5067 0.8239 -0.2537
vn -0.1433 0.9512 0.2733
vn -0.1110 0.9920 0.0596
vn 0.3451 0.9363 0.0646
vn 0.7867 0.5145 -0.3412
vn -0.2697 -0.1257 -0.9547
vn -0.7623 0.5205 0.3846
vn -0.9809 -0.0008 -0.1945
vn -0.7336 -0.0831 0.6745
vn -0.7003 -0.1399 0.7000
vn 0.3565 0.4874 0.7971
vn 0.5964 0.2849 0.7505
vn 0.6483 0.7057 0.2859
vn 0.1606 -0.3845 -0.9090
vn -0.6346 -0.6586 -0.4043
vn 0.8644 0.4926 -0.1007
vn 0.0945 -0.9139 -0.3947
vn 0.0499 -0.8571 -0.5128
vn -0.4551 -0.8202 -0.3465
vn -0.4249 -0.8111 -0.4020
vn -0.5808 -0.7264 -0.3674
vn -0.4142 -0.7798 0.4694
vn -0.5240 -0.7464 0.4102
vn -0.5031 -0.6597 0.5582
vn 0.5648 -0.8142 -0.1346
vn 0.5109 -0.8531 0.1058
vn 0.1310 -0.8325 0.5383
vn 0.5567 -0.5460 0.6261
vn 0.9132 -0.1833 0.3640
vn -0.2273 -0.3229 0.9187
vn 0.2396 0.5918 -0.7697
vn 0.5821 0.7622 -0.2833
vn -0.7579 0.6241 0.1898
vn -0.6956 0.7006 0.1589
vn 0.3687 0.8560 0.3625
vn 0.1134 0.2093 -0.9712
vn -0.9619 0.2720 -0.0261
vn -0.0708 0.5191 0.8518
vn 0.3603 0.7164 0.5975
vn -0.8086 -0.1148 -0.5770
vn -0.6493 -0.4700 0.5979
vn 0.9837 -0.1445 -0.1069
vn 0.5356 -0.4895 -0.6882
vn -0.1046 -0.9732 -0.2050
vn -0.3614 -0.9131 -0.1888
vn 0.3061 -0.6723 0.6740
usemtl None
s off
f 4/1/1 6/2/1 9/3/1
f 1/4/2 4/1/2 2/5/2
f 10/6/3 7/7/3 3/8/3
f 2/5/4 11/9/4 3/8/4
f 2/5/5 5/10/5 11/9/5
f 11/9/6 10/6/6 3/8/6
f 11/9/7 8/11/7 10/6/7
f 9/3/8 11/9/8 5/10/8
f 9/3/9 8/11/9 11/9/9
f 8/11/10 6/2/10 10/6/10
f 1/4/11 2/5/11 3/8/11
f 6/2/12 7/7/12 10/6/12
f 6/2/13 1/4/13 7/7/13
f 7/7/14 1/4/14 3/8/14
f 2/5/15 4/1/15 5/10/15
f 4/1/16 9/3/16 5/10/16
f 9/3/17 6/2/17 8/11/17
f 4/1/18 1/4/18 6/2/18
f 21/12/19 16/13/19 22/14/19
f 12/15/20 24/16/20 26/17/20
f 13/18/21 25/19/21 27/20/21
f 20/21/22 27/20/22 22/14/22
f 26/17/23 29/22/23 14/23/23
f 27/20/24 26/17/24 14/23/24
f 31/24/25 27/20/25 14/23/25
f 14/23/26 29/22/26 32/25/26
f 32/25/27 30/26/27 14/23/27
f 32/25/28 28/27/28 30/26/28
f 30/26/29 31/24/29 14/23/29
f 22/14/30 27/20/30 31/24/30
f 27/20/31 25/19/31 26/17/31
f 26/17/32 24/16/32 29/22/32
f 24/16/33 32/25/33 29/22/33
f 24/16/34 28/27/34 32/25/34
f 24/16/35 23/28/35 28/27/35
f 23/28/36 30/26/36 28/27/36
f 23/28/37 21/12/37 30/26/37
f 21/12/38 31/24/38 30/26/38
f 20/21/39 13/18/39 27/20/39
f 25/19/40 12/15/40 26/17/40
f 21/12/41 22/14/41 31/24/41
f 17/29/42 19/30/42 20/21/42
f 19/30/43 13/18/43 20/21/43
f 19/30/44 25/19/44 13/18/44
f 19/30/45 18/31/45 25/19/45
f 18/31/46 12/15/46 25/19/46
f 18/31/47 24/16/47 12/15/47
f 18/31/48 15/32/48 24/16/48
f 15/32/49 23/28/49 24/16/49
f 22/14/50 17/29/50 20/21/50
f 22/14/51 16/13/51 17/29/51
f 15/32/52 16/13/52 23/28/52
f 16/13/53 21/12/53 23/28/53
f 38/33/54 34/34/54 33/35/54
f 36/36/55 38/33/55 39/37/55
f 37/38/56 41/39/56 42/40/56
f 33/35/57 37/38/57 42/40/57
f 42/40/58 41/39/58 43/41/58
f 41/39/59 39/37/59 43/41/59
f 43/41/60 33/35/60 42/40/60
f 40/42/61 41/39/61 37/38/61
f 35/43/62 39/37/62 41/39/62
f 39/37/63 38/33/63 43/41/63
f 38/33/64 33/35/64 43/41/64
f 40/42/65 35/43/65 41/39/65
f 35/43/66 36/36/66 39/37/66
f 33/35/67 34/34/67 37/38/67
f 34/34/68 40/42/68 37/38/68
f 34/34/69 36/36/69 40/42/69
f 36/36/70 35/43/70 40/42/70
f 34/34/71 38/33/71 36/36/71
