# Blender v2.90.1 OBJ File: 'drzewo1.blend'
# www.blender.org
mtllib krzak_2.mtl
o krzak_2_Plane
v 1.795666 -0.140001 2.528152
v -1.802641 -0.140001 2.528152
v -1.801196 -0.139288 -1.068688
v 1.793441 -0.138900 -1.067890
v 1.831748 3.757288 2.549398
v 2.225963 2.242157 -1.328759
v 1.033556 6.047226 1.982352
v 0.979019 6.330034 -0.295411
v 2.257743 -0.138900 0.729035
v -0.003485 -0.138900 2.990264
v -2.265314 -0.139136 0.729028
v -0.003487 -0.139962 -1.534931
v 0.002770 8.662611 0.755427
v 0.600071 7.103243 1.290283
v -1.413821 5.218885 2.109760
v -0.001260 6.535603 2.075605
v -1.571574 5.196897 -0.723526
v -0.256900 4.263987 -1.645395
v 1.298845 6.483067 0.644033
v 2.276237 1.832524 3.006964
v 0.012048 2.114443 3.764463
v -2.232815 2.005882 2.954819
v -2.510634 3.906060 0.655440
v -2.155802 2.131700 -1.261270
v 2.155873 4.609076 0.801360
v -3.151286 1.823203 0.720299
v -0.140026 1.779947 -2.429317
v 3.099395 2.081988 0.783915
v 2.287326 0.713288 3.016903
v -2.294758 0.713288 3.016903
v -2.235630 0.794378 -1.412824
v 2.334967 0.855545 -1.490420
v -0.022875 0.769909 3.789152
v -3.048993 0.696779 0.725861
v -0.070596 0.642538 -2.334247
v 3.039730 0.807195 0.754977
vt 0.898437 0.800739
vt 0.898437 0.800739
vt 0.898437 0.800739
vt 0.898437 0.800739
vt 0.898437 0.800739
vt 0.898437 0.800739
vt 0.898437 0.800739
vt 0.898437 0.800739
vt 0.898437 0.800739
vt 0.898437 0.800739
vt 0.898437 0.800739
vt 0.898437 0.800739
vt 0.898437 0.800739
vt 0.898437 0.800739
vt 0.898437 0.800739
vt 0.898437 0.800739
vt 0.898437 0.800739
vt 0.898437 0.800739
vt 0.898437 0.800739
vt 0.898437 0.800739
vt 0.898437 0.800739
vt 0.898437 0.800739
vt 0.898437 0.800739
vt 0.898437 0.800739
vt 0.898437 0.800739
vt 0.898437 0.800739
vt 0.898437 0.800739
vt 0.898437 0.800739
vt 0.898437 0.800739
vt 0.898437 0.800739
vt 0.898437 0.800739
vt 0.898437 0.800739
vt 0.898437 0.800739
vt 0.898437 0.800739
vt 0.898437 0.800739
vt 0.898437 0.800739
vn -0.4266 0.4775 0.7681
vn 0.3518 0.6098 0.7102
vn -0.2539 0.4749 -0.8426
vn 0.1734 0.4639 -0.8687
vn 0.7881 0.4470 0.4232
vn 0.3359 0.2906 0.8959
vn 0.3546 0.2965 -0.8868
vn 0.2287 0.3084 0.9234
vn -0.2955 0.3401 0.8928
vn -0.8715 0.4638 -0.1593
vn 0.8602 0.3549 -0.3661
vn -0.3316 0.0432 0.9424
vn 0.5228 0.4488 0.7247
vn 0.7967 0.4917 -0.3513
vn 0.7785 0.5348 0.3285
vn -0.3352 0.3186 0.8866
vn 0.3178 0.0103 0.9481
vn -0.8824 0.3048 0.3585
vn -0.8860 0.2469 -0.3925
vn -0.9161 0.0154 -0.4007
vn -0.9379 -0.0059 0.3469
vn -0.4467 0.2427 -0.8611
vn 0.3707 0.0507 -0.9274
vn -0.4448 0.0223 -0.8954
vn 0.8869 0.3103 0.3423
vn 0.8806 0.3311 -0.3390
vn 0.9438 -0.0218 0.3299
vn 0.9401 0.0417 -0.3384
vn 0.8563 0.3977 0.3295
vn 0.2880 0.3425 0.8943
vn -0.8598 0.4492 0.2429
vn 0.3821 0.3343 -0.8615
vn 0.8618 0.3645 -0.3528
vn 0.7807 -0.5800 -0.2327
vn 0.7670 -0.6045 0.2152
vn -0.2874 -0.5878 -0.7562
vn 0.2671 -0.5934 -0.7593
vn -0.7456 -0.6276 0.2242
vn -0.7695 -0.5815 -0.2641
vn 0.2193 -0.6133 0.7588
vn -0.2205 -0.6164 0.7559
usemtl None
s off
f 13/1/1 15/2/1 16/3/1
f 16/3/2 7/4/2 14/5/2
f 13/1/3 18/6/3 17/7/3
f 8/8/4 18/6/4 13/1/4
f 14/5/5 19/9/5 13/1/5
f 5/10/6 21/11/6 20/12/6
f 18/6/7 6/13/7 27/14/7
f 7/4/8 16/3/8 5/10/8
f 15/2/9 21/11/9 16/3/9
f 13/1/10 17/7/10 23/15/10
f 25/16/11 6/13/11 8/8/11
f 30/17/12 33/18/12 21/11/12 22/19/12
f 13/1/13 16/3/13 14/5/13
f 13/1/14 19/9/14 8/8/14
f 19/9/15 14/5/15 7/4/15
f 21/11/16 15/2/16 22/19/16
f 29/20/17 20/12/17 21/11/17 33/18/17
f 26/21/18 22/19/18 15/2/18 23/15/18
f 24/22/19 26/21/19 23/15/19 17/7/19
f 34/23/20 26/21/20 24/22/20 31/24/20
f 30/17/21 22/19/21 26/21/21 34/23/21
f 24/22/22 17/7/22 18/6/22 27/14/22
f 32/25/23 35/26/23 27/14/23 6/13/23
f 31/24/24 24/22/24 27/14/24 35/26/24
f 28/27/25 25/16/25 5/10/25 20/12/25
f 25/16/26 28/27/26 6/13/26
f 29/20/27 36/28/27 28/27/27 20/12/27
f 36/28/28 32/25/28 6/13/28 28/27/28
f 5/10/29 25/16/29 19/9/29 7/4/29
f 16/3/30 21/11/30 5/10/30
f 15/2/31 13/1/31 23/15/31
f 8/8/32 6/13/32 18/6/32
f 8/8/33 19/9/33 25/16/33
f 9/29/34 4/30/34 32/25/34 36/28/34
f 1/31/35 9/29/35 36/28/35 29/20/35
f 3/32/36 31/24/36 35/26/36 12/33/36
f 4/30/37 12/33/37 35/26/37 32/25/37
f 2/34/38 30/17/38 34/23/38 11/35/38
f 11/35/39 34/23/39 31/24/39 3/32/39
f 1/31/40 29/20/40 33/18/40 10/36/40
f 2/34/41 10/36/41 33/18/41 30/17/41
